%TF.GenerationSoftware,KiCad,Pcbnew,7.0.11-7.0.11~ubuntu22.04.1*%
%TF.CreationDate,2024-06-13T13:42:09+02:00*%
%TF.ProjectId,ESP-Pump-Interface,4553502d-5075-46d7-902d-496e74657266,rev?*%
%TF.SameCoordinates,Original*%
%TF.FileFunction,Copper,L1,Top*%
%TF.FilePolarity,Positive*%
%FSLAX46Y46*%
G04 Gerber Fmt 4.6, Leading zero omitted, Abs format (unit mm)*
G04 Created by KiCad (PCBNEW 7.0.11-7.0.11~ubuntu22.04.1) date 2024-06-13 13:42:09*
%MOMM*%
%LPD*%
G01*
G04 APERTURE LIST*
%TA.AperFunction,ComponentPad*%
%ADD10R,1.500000X1.500000*%
%TD*%
%TA.AperFunction,ComponentPad*%
%ADD11C,1.500000*%
%TD*%
%TA.AperFunction,ComponentPad*%
%ADD12C,1.400000*%
%TD*%
%TA.AperFunction,ComponentPad*%
%ADD13O,1.400000X1.400000*%
%TD*%
%TA.AperFunction,ComponentPad*%
%ADD14R,1.700000X1.700000*%
%TD*%
%TA.AperFunction,ComponentPad*%
%ADD15O,1.700000X1.700000*%
%TD*%
%TA.AperFunction,SMDPad,CuDef*%
%ADD16R,0.300000X1.240000*%
%TD*%
%TA.AperFunction,SMDPad,CuDef*%
%ADD17R,0.600000X1.240000*%
%TD*%
%TA.AperFunction,ComponentPad*%
%ADD18O,1.000000X2.100000*%
%TD*%
%TA.AperFunction,ComponentPad*%
%ADD19O,1.000000X1.800000*%
%TD*%
%TA.AperFunction,ComponentPad*%
%ADD20R,1.800000X1.800000*%
%TD*%
%TA.AperFunction,ComponentPad*%
%ADD21C,1.800000*%
%TD*%
%TA.AperFunction,ComponentPad*%
%ADD22C,1.524000*%
%TD*%
%TA.AperFunction,Conductor*%
%ADD23C,0.200000*%
%TD*%
G04 APERTURE END LIST*
D10*
%TO.P,Q1,1,E*%
%TO.N,GND*%
X134061200Y-58806600D03*
D11*
%TO.P,Q1,2,B*%
%TO.N,Pump1*%
X134061200Y-56266600D03*
%TO.P,Q1,3,C*%
%TO.N,Net-(Pump1-Pin_2)*%
X134061200Y-53726600D03*
%TD*%
D12*
%TO.P,R9,1*%
%TO.N,Net-(J1-CC2)*%
X143281800Y-86360000D03*
D13*
%TO.P,R9,2*%
%TO.N,GND*%
X143281800Y-81280000D03*
%TD*%
D14*
%TO.P,Pump1,1,Pin_1*%
%TO.N,+5V*%
X134005000Y-46278800D03*
D15*
%TO.P,Pump1,2,Pin_2*%
%TO.N,Net-(Pump1-Pin_2)*%
X134005000Y-48818800D03*
%TD*%
D12*
%TO.P,R8,1*%
%TO.N,Pump2*%
X145415000Y-60960000D03*
D13*
%TO.P,R8,2*%
%TO.N,GND*%
X145415000Y-66040000D03*
%TD*%
D12*
%TO.P,R10,1*%
%TO.N,Net-(J1-CC1)*%
X140131800Y-86360000D03*
D13*
%TO.P,R10,2*%
%TO.N,GND*%
X140131800Y-81280000D03*
%TD*%
D16*
%TO.P,J1,A5,CC1*%
%TO.N,Net-(J1-CC1)*%
X140458600Y-88926000D03*
%TO.P,J1,A6*%
%TO.N,N/C*%
X141458600Y-88926000D03*
%TO.P,J1,A7*%
X141958600Y-88926000D03*
%TO.P,J1,A8*%
X142958600Y-88926000D03*
D17*
%TO.P,J1,A9,VBUS*%
%TO.N,+5V*%
X144108600Y-88926000D03*
%TO.P,J1,A12,GND*%
%TO.N,GND*%
X144908600Y-88926000D03*
D16*
%TO.P,J1,B5,CC2*%
%TO.N,Net-(J1-CC2)*%
X143458600Y-88926000D03*
%TO.P,J1,B6*%
%TO.N,N/C*%
X142458600Y-88926000D03*
%TO.P,J1,B7*%
X140958600Y-88926000D03*
%TO.P,J1,B8*%
X139958600Y-88926000D03*
D17*
%TO.P,J1,B9,VBUS*%
%TO.N,+5V*%
X139308600Y-88926000D03*
%TO.P,J1,B12,GND*%
%TO.N,GND*%
X138508600Y-88926000D03*
D18*
%TO.P,J1,S1,SHIELD*%
X137388600Y-89526000D03*
D19*
X137388600Y-93726000D03*
D18*
X146028600Y-89526000D03*
D19*
X146028600Y-93726000D03*
%TD*%
D14*
%TO.P,Pump2,1,Pin_1*%
%TO.N,+5V*%
X138655000Y-46278800D03*
D15*
%TO.P,Pump2,2,Pin_2*%
%TO.N,Net-(Pump2-Pin_2)*%
X138655000Y-48818800D03*
%TD*%
D12*
%TO.P,R7,1*%
%TO.N,Net-(D4-K)*%
X144145000Y-69850000D03*
D13*
%TO.P,R7,2*%
%TO.N,Net-(Pump4-Pin_2)*%
X139065000Y-69850000D03*
%TD*%
D12*
%TO.P,R2,1*%
%TO.N,Net-(D1-K)*%
X139065000Y-77470000D03*
D13*
%TO.P,R2,2*%
%TO.N,Net-(Pump1-Pin_2)*%
X144145000Y-77470000D03*
%TD*%
D10*
%TO.P,Q2,1,E*%
%TO.N,GND*%
X138988800Y-58806600D03*
D11*
%TO.P,Q2,2,B*%
%TO.N,Pump2*%
X138988800Y-56266600D03*
%TO.P,Q2,3,C*%
%TO.N,Net-(Pump2-Pin_2)*%
X138988800Y-53726600D03*
%TD*%
D14*
%TO.P,Pump4,1,Pin_1*%
%TO.N,+5V*%
X147955000Y-46278800D03*
D15*
%TO.P,Pump4,2,Pin_2*%
%TO.N,Net-(Pump4-Pin_2)*%
X147955000Y-48818800D03*
%TD*%
D12*
%TO.P,R1,1*%
%TO.N,Pump1*%
X137795000Y-60960000D03*
D13*
%TO.P,R1,2*%
%TO.N,GND*%
X137795000Y-66040000D03*
%TD*%
D20*
%TO.P,D4,1,K*%
%TO.N,Net-(D4-K)*%
X148590000Y-71875000D03*
D21*
%TO.P,D4,2,A*%
%TO.N,+5V*%
X148590000Y-69335000D03*
%TD*%
D12*
%TO.P,R6,1*%
%TO.N,Pump1*%
X142875000Y-60960000D03*
D13*
%TO.P,R6,2*%
%TO.N,GND*%
X142875000Y-66040000D03*
%TD*%
D14*
%TO.P,Pump3,1,Pin_1*%
%TO.N,+5V*%
X143305000Y-46278800D03*
D15*
%TO.P,Pump3,2,Pin_2*%
%TO.N,Net-(Pump3-Pin_2)*%
X143305000Y-48818800D03*
%TD*%
D10*
%TO.P,Q4,1,E*%
%TO.N,GND*%
X148920200Y-58806600D03*
D11*
%TO.P,Q4,2,B*%
%TO.N,Pump2*%
X148920200Y-56266600D03*
%TO.P,Q4,3,C*%
%TO.N,Net-(Pump4-Pin_2)*%
X148920200Y-53726600D03*
%TD*%
D12*
%TO.P,R5,1*%
%TO.N,Net-(D3-K)*%
X144145000Y-74980000D03*
D13*
%TO.P,R5,2*%
%TO.N,Net-(Pump3-Pin_2)*%
X139065000Y-74980000D03*
%TD*%
D20*
%TO.P,D1,1,K*%
%TO.N,Net-(D1-K)*%
X133985000Y-79255000D03*
D21*
%TO.P,D1,2,A*%
%TO.N,+5V*%
X133985000Y-76715000D03*
%TD*%
D20*
%TO.P,D3,1,K*%
%TO.N,Net-(D3-K)*%
X148590000Y-79375000D03*
D21*
%TO.P,D3,2,A*%
%TO.N,+5V*%
X148590000Y-76835000D03*
%TD*%
D10*
%TO.P,Q3,1,E*%
%TO.N,GND*%
X143992600Y-58806600D03*
D11*
%TO.P,Q3,2,B*%
%TO.N,Pump1*%
X143992600Y-56266600D03*
%TO.P,Q3,3,C*%
%TO.N,Net-(Pump3-Pin_2)*%
X143992600Y-53726600D03*
%TD*%
D20*
%TO.P,D2,1,K*%
%TO.N,Net-(D2-K)*%
X133985000Y-71755000D03*
D21*
%TO.P,D2,2,A*%
%TO.N,+5V*%
X133985000Y-69215000D03*
%TD*%
D12*
%TO.P,R3,1*%
%TO.N,Net-(D2-K)*%
X139065000Y-72390000D03*
D13*
%TO.P,R3,2*%
%TO.N,Net-(Pump2-Pin_2)*%
X144145000Y-72390000D03*
%TD*%
D12*
%TO.P,R4,1*%
%TO.N,Pump2*%
X140335000Y-60960000D03*
D13*
%TO.P,R4,2*%
%TO.N,GND*%
X140335000Y-66040000D03*
%TD*%
D22*
%TO.P,U1,36,GPIO23_VSPI-MOSI*%
%TO.N,unconnected-(U1-GPIO23_VSPI-MOSI-Pad36)*%
X128270000Y-48347500D03*
%TO.P,U1,35,GPIO22_I2C-SCL*%
%TO.N,unconnected-(U1-GPIO22_I2C-SCL-Pad35)*%
X128270000Y-50887500D03*
%TO.P,U1,34,GPIO1_UART0-TX*%
%TO.N,unconnected-(U1-GPIO1_UART0-TX-Pad34)*%
X128270000Y-53427500D03*
%TO.P,U1,33,GPIO3__UART0-RX*%
%TO.N,unconnected-(U1-GPIO3__UART0-RX-Pad33)*%
X128270000Y-55967500D03*
%TO.P,U1,32,GPIO21_I2C-SDA*%
%TO.N,unconnected-(U1-GPIO21_I2C-SDA-Pad32)*%
X128270000Y-58507500D03*
%TO.P,U1,31,GPIO19_VSPI-MISO*%
%TO.N,unconnected-(U1-GPIO19_VSPI-MISO-Pad31)*%
X128270000Y-61047500D03*
%TO.P,U1,30,GPIO18_VSPI-CLK*%
%TO.N,unconnected-(U1-GPIO18_VSPI-CLK-Pad30)*%
X128270000Y-63587500D03*
%TO.P,U1,29,GPIO5_VSPI-CS0*%
%TO.N,unconnected-(U1-GPIO5_VSPI-CS0-Pad29)*%
X128270000Y-66127500D03*
%TO.P,U1,28,GPIO17_UART2-TX*%
%TO.N,unconnected-(U1-GPIO17_UART2-TX-Pad28)*%
X128270000Y-68667500D03*
%TO.P,U1,27,GPIO16_UART2-RX*%
%TO.N,unconnected-(U1-GPIO16_UART2-RX-Pad27)*%
X128270000Y-71207500D03*
%TO.P,U1,26,GPIO4_ADC2-CH0_RTC-GPIO10*%
%TO.N,unconnected-(U1-GPIO4_ADC2-CH0_RTC-GPIO10-Pad26)*%
X128270000Y-73747500D03*
%TO.P,U1,25,GPIO2_ADC2-CH2_RTC-GPIO12*%
%TO.N,unconnected-(U1-GPIO2_ADC2-CH2_RTC-GPIO12-Pad25)*%
X128270000Y-76287500D03*
%TO.P,U1,24,GPIO15_ADC2-CH3_HSPI-CS0_RTC-GPIO13*%
%TO.N,unconnected-(U1-GPIO15_ADC2-CH3_HSPI-CS0_RTC-GPIO13-Pad24)*%
X128270000Y-78827500D03*
%TO.P,U1,23,GPIO0_ADC2-CH1_RTC-GPIO11*%
%TO.N,unconnected-(U1-GPIO0_ADC2-CH1_RTC-GPIO11-Pad23)*%
X128270000Y-81367500D03*
%TO.P,U1,22,GPIO8_SDI/SD1*%
%TO.N,unconnected-(U1-GPIO8_SDI{slash}SD1-Pad22)*%
X128270000Y-83907500D03*
%TO.P,U1,21,GPIO7_SDO/SD0*%
%TO.N,unconnected-(U1-GPIO7_SDO{slash}SD0-Pad21)*%
X128270000Y-86447500D03*
%TO.P,U1,20,GPIO6_SCK/CLK*%
%TO.N,unconnected-(U1-GPIO6_SCK{slash}CLK-Pad20)*%
X128270000Y-88987500D03*
%TO.P,U1,19,3V3*%
%TO.N,unconnected-(U1-3V3-Pad19)*%
X128270000Y-91527500D03*
%TO.P,U1,18,VIN*%
%TO.N,+5V*%
X153670000Y-91527500D03*
%TO.P,U1,17,GND*%
%TO.N,GND*%
X153670000Y-88987500D03*
%TO.P,U1,16,GPIO11_CSC/CMD*%
%TO.N,unconnected-(U1-GPIO11_CSC{slash}CMD-Pad16)*%
X153670000Y-86447500D03*
%TO.P,U1,15,GPIO10_SWP/SD3*%
%TO.N,unconnected-(U1-GPIO10_SWP{slash}SD3-Pad15)*%
X153670000Y-83907500D03*
%TO.P,U1,14,GPIO9_SHD/SD2*%
%TO.N,unconnected-(U1-GPIO9_SHD{slash}SD2-Pad14)*%
X153670000Y-81367500D03*
%TO.P,U1,13,GPIO13_ADC2-CH4_HSPI-MOSI_RTC-GPIO14*%
%TO.N,unconnected-(U1-GPIO13_ADC2-CH4_HSPI-MOSI_RTC-GPIO14-Pad13)*%
X153670000Y-78827500D03*
%TO.P,U1,12,GPIO12_ADC2-CH5_HSPI-MISO_RTC-GPIO15*%
%TO.N,Pump1*%
X153670000Y-76287500D03*
%TO.P,U1,11,GPIO14_ADC2-CH6_HSPI-CLK_RTC-GPIO16*%
%TO.N,Pump2*%
X153670000Y-73747500D03*
%TO.P,U1,10,GPIO27_ADC2-CH7_RTC-GPIO17*%
%TO.N,Pump3*%
X153670000Y-71207500D03*
%TO.P,U1,9,GPIO26_ADC2-CH9_DAC2_RTC-GPIO7*%
%TO.N,Pump4*%
X153670000Y-68667500D03*
%TO.P,U1,8,GPIO25_ADC2-CH8_DAC1_RTC-GPIO6*%
%TO.N,unconnected-(U1-GPIO25_ADC2-CH8_DAC1_RTC-GPIO6-Pad8)*%
X153670000Y-66127500D03*
%TO.P,U1,7,GPIO33_ADC1-CH5_RTC-GPIO8*%
%TO.N,unconnected-(U1-GPIO33_ADC1-CH5_RTC-GPIO8-Pad7)*%
X153670000Y-63587500D03*
%TO.P,U1,6,GPIO32_ADC1-CH4_RTC-GPIO9*%
%TO.N,unconnected-(U1-GPIO32_ADC1-CH4_RTC-GPIO9-Pad6)*%
X153670000Y-61047500D03*
%TO.P,U1,5,GPIO35_ADC1-CH7_RTC-GPIO5*%
%TO.N,unconnected-(U1-GPIO35_ADC1-CH7_RTC-GPIO5-Pad5)*%
X153670000Y-58507500D03*
%TO.P,U1,4,GPIO34_ADC1-CH6_RTC-GPIO4*%
%TO.N,unconnected-(U1-GPIO34_ADC1-CH6_RTC-GPIO4-Pad4)*%
X153670000Y-55967500D03*
%TO.P,U1,3,GPIO39_ADC1-CH3_SENS-VN_RTC-GPIO3*%
%TO.N,unconnected-(U1-GPIO39_ADC1-CH3_SENS-VN_RTC-GPIO3-Pad3)*%
X153670000Y-53427500D03*
%TO.P,U1,2,GPIO36_ADC-CH0_SENS-VP_RTC-GPIO0*%
%TO.N,unconnected-(U1-GPIO36_ADC-CH0_SENS-VP_RTC-GPIO0-Pad2)*%
X153670000Y-50887500D03*
%TO.P,U1,1,EN*%
%TO.N,unconnected-(U1-EN-Pad1)*%
X153670000Y-48347500D03*
%TD*%
D23*
%TO.N,GND*%
X137558600Y-88005900D02*
X138508600Y-88005900D01*
X144908600Y-88926000D02*
X144908600Y-88005900D01*
X146028600Y-88175900D02*
X145858600Y-88005900D01*
X137388600Y-88175900D02*
X137558600Y-88005900D01*
X146028600Y-89526000D02*
X146028600Y-88175900D01*
X145858600Y-88005900D02*
X144908600Y-88005900D01*
X137388600Y-89526000D02*
X137388600Y-88175900D01*
X138508600Y-88926000D02*
X138508600Y-88005900D01*
%TO.N,Net-(Pump2-Pin_2)*%
X138870400Y-71120000D02*
X141874900Y-71120000D01*
X139065000Y-60693300D02*
X139065000Y-67040200D01*
X139065000Y-67040200D02*
X138054800Y-68050400D01*
X138988800Y-53726600D02*
X140040200Y-54778000D01*
X144145000Y-72390000D02*
X143144900Y-72390000D01*
X138054800Y-70304400D02*
X138870400Y-71120000D01*
X141874900Y-71120000D02*
X143144900Y-72390000D01*
X140040200Y-59718100D02*
X139065000Y-60693300D01*
X138054800Y-68050400D02*
X138054800Y-70304400D01*
X140040200Y-54778000D02*
X140040200Y-59718100D01*
%TO.N,Net-(Pump3-Pin_2)*%
X143305000Y-48818800D02*
X142154900Y-48818800D01*
X136746000Y-71660900D02*
X139065000Y-73979900D01*
X139065000Y-74980000D02*
X139065000Y-73979900D01*
X142154900Y-48818800D02*
X136746000Y-54227700D01*
X136746000Y-54227700D02*
X136746000Y-71660900D01*
%TO.N,Net-(Pump4-Pin_2)*%
X144145000Y-60601600D02*
X144145000Y-62041200D01*
X145103800Y-59642800D02*
X144145000Y-60601600D01*
X141341700Y-66573200D02*
X139065000Y-68849900D01*
X141341700Y-64844500D02*
X141341700Y-66573200D01*
X145103800Y-57543000D02*
X145103800Y-59642800D01*
X144145000Y-62041200D02*
X141341700Y-64844500D01*
X139065000Y-69850000D02*
X139065000Y-68849900D01*
X148920200Y-53726600D02*
X145103800Y-57543000D01*
%TO.N,Pump1*%
X142875000Y-60960000D02*
X142875000Y-57384200D01*
X142875000Y-57384200D02*
X143992600Y-56266600D01*
%TO.N,Net-(D3-K)*%
X147389900Y-78224900D02*
X144145000Y-74980000D01*
X148590000Y-79375000D02*
X147389900Y-79375000D01*
X147389900Y-79375000D02*
X147389900Y-78224900D01*
%TO.N,Net-(J1-CC1)*%
X140458600Y-88926000D02*
X140458600Y-86686800D01*
X140458600Y-86686800D02*
X140131800Y-86360000D01*
%TO.N,Net-(J1-CC2)*%
X143458600Y-88926000D02*
X143458600Y-86536800D01*
X143458600Y-86536800D02*
X143281800Y-86360000D01*
%TD*%
%TA.AperFunction,Conductor*%
%TO.N,+5V*%
G36*
X155017539Y-44970185D02*
G01*
X155063294Y-45022989D01*
X155074500Y-45074500D01*
X155074500Y-95895500D01*
X155054815Y-95962539D01*
X155002011Y-96008294D01*
X154950500Y-96019500D01*
X127624500Y-96019500D01*
X127557461Y-95999815D01*
X127511706Y-95947011D01*
X127500500Y-95895500D01*
X127500500Y-94168374D01*
X136688100Y-94168374D01*
X136703459Y-94294868D01*
X136703460Y-94294874D01*
X136763782Y-94453931D01*
X136826075Y-94544177D01*
X136860417Y-94593929D01*
X136966105Y-94687560D01*
X136987750Y-94706736D01*
X137138373Y-94785789D01*
X137138375Y-94785790D01*
X137303544Y-94826500D01*
X137473656Y-94826500D01*
X137638825Y-94785790D01*
X137718292Y-94744081D01*
X137789449Y-94706736D01*
X137789450Y-94706734D01*
X137789452Y-94706734D01*
X137916783Y-94593929D01*
X138013418Y-94453930D01*
X138073740Y-94294872D01*
X138089100Y-94168374D01*
X145328100Y-94168374D01*
X145343459Y-94294868D01*
X145343460Y-94294874D01*
X145403782Y-94453931D01*
X145466075Y-94544177D01*
X145500417Y-94593929D01*
X145606105Y-94687560D01*
X145627750Y-94706736D01*
X145778373Y-94785789D01*
X145778375Y-94785790D01*
X145943544Y-94826500D01*
X146113656Y-94826500D01*
X146278825Y-94785790D01*
X146358292Y-94744081D01*
X146429449Y-94706736D01*
X146429450Y-94706734D01*
X146429452Y-94706734D01*
X146556783Y-94593929D01*
X146653418Y-94453930D01*
X146713740Y-94294872D01*
X146729100Y-94168372D01*
X146729100Y-93283628D01*
X146713740Y-93157128D01*
X146653418Y-92998070D01*
X146556783Y-92858071D01*
X146429452Y-92745266D01*
X146429449Y-92745263D01*
X146278826Y-92666210D01*
X146113656Y-92625500D01*
X145943544Y-92625500D01*
X145778373Y-92666210D01*
X145627750Y-92745263D01*
X145500416Y-92858072D01*
X145403782Y-92998068D01*
X145343460Y-93157125D01*
X145343459Y-93157131D01*
X145328100Y-93283625D01*
X145328100Y-94168374D01*
X138089100Y-94168374D01*
X138089100Y-94168372D01*
X138089100Y-93283628D01*
X138073740Y-93157128D01*
X138013418Y-92998070D01*
X137916783Y-92858071D01*
X137789452Y-92745266D01*
X137789449Y-92745263D01*
X137638826Y-92666210D01*
X137473656Y-92625500D01*
X137303544Y-92625500D01*
X137138373Y-92666210D01*
X136987750Y-92745263D01*
X136860416Y-92858072D01*
X136763782Y-92998068D01*
X136703460Y-93157125D01*
X136703459Y-93157131D01*
X136688100Y-93283625D01*
X136688100Y-94168374D01*
X127500500Y-94168374D01*
X127500500Y-92403296D01*
X127520185Y-92336257D01*
X127572989Y-92290502D01*
X127642147Y-92280558D01*
X127703165Y-92307443D01*
X127732674Y-92331661D01*
X127732681Y-92331665D01*
X127899877Y-92421033D01*
X127899878Y-92421033D01*
X127899885Y-92421037D01*
X128081317Y-92476073D01*
X128081316Y-92476073D01*
X128098233Y-92477739D01*
X128270000Y-92494657D01*
X128458683Y-92476073D01*
X128640115Y-92421037D01*
X128807324Y-92331662D01*
X128953883Y-92211383D01*
X129074162Y-92064824D01*
X129163537Y-91897615D01*
X129218573Y-91716183D01*
X129237157Y-91527500D01*
X129218573Y-91338817D01*
X129163537Y-91157385D01*
X129074162Y-90990176D01*
X129074161Y-90990174D01*
X128953883Y-90843616D01*
X128807325Y-90723338D01*
X128807318Y-90723334D01*
X128640122Y-90633966D01*
X128640119Y-90633965D01*
X128640118Y-90633964D01*
X128640115Y-90633963D01*
X128458683Y-90578927D01*
X128458681Y-90578926D01*
X128458683Y-90578926D01*
X128270000Y-90560343D01*
X128081318Y-90578926D01*
X127989803Y-90606687D01*
X127899885Y-90633963D01*
X127899882Y-90633964D01*
X127899880Y-90633965D01*
X127899877Y-90633966D01*
X127732681Y-90723334D01*
X127732674Y-90723338D01*
X127703164Y-90747557D01*
X127638853Y-90774869D01*
X127569986Y-90763077D01*
X127518426Y-90715925D01*
X127500500Y-90651703D01*
X127500500Y-90118374D01*
X136688100Y-90118374D01*
X136703459Y-90244868D01*
X136703460Y-90244874D01*
X136763782Y-90403931D01*
X136800034Y-90456450D01*
X136860417Y-90543929D01*
X136947976Y-90621499D01*
X136987750Y-90656736D01*
X137114642Y-90723334D01*
X137138375Y-90735790D01*
X137303544Y-90776500D01*
X137473656Y-90776500D01*
X137638825Y-90735790D01*
X137718292Y-90694081D01*
X137789449Y-90656736D01*
X137789450Y-90656734D01*
X137789452Y-90656734D01*
X137916783Y-90543929D01*
X138013418Y-90403930D01*
X138060535Y-90279688D01*
X138102712Y-90223987D01*
X138168309Y-90199929D01*
X138236500Y-90215155D01*
X138285634Y-90264831D01*
X138291038Y-90276207D01*
X138292480Y-90279689D01*
X138315902Y-90336233D01*
X138408149Y-90456451D01*
X138528367Y-90548698D01*
X138668364Y-90606687D01*
X138780880Y-90621500D01*
X138780887Y-90621500D01*
X138856313Y-90621500D01*
X138856320Y-90621500D01*
X138968836Y-90606687D01*
X139108833Y-90548698D01*
X139229051Y-90456451D01*
X139321298Y-90336233D01*
X139379287Y-90196236D01*
X139399066Y-90046000D01*
X144018134Y-90046000D01*
X144037912Y-90196234D01*
X144037913Y-90196236D01*
X144072480Y-90279689D01*
X144095902Y-90336233D01*
X144188149Y-90456451D01*
X144308367Y-90548698D01*
X144448364Y-90606687D01*
X144560880Y-90621500D01*
X144560887Y-90621500D01*
X144636313Y-90621500D01*
X144636320Y-90621500D01*
X144748836Y-90606687D01*
X144888833Y-90548698D01*
X145009051Y-90456451D01*
X145101298Y-90336233D01*
X145126161Y-90276206D01*
X145170001Y-90221805D01*
X145236295Y-90199739D01*
X145303994Y-90217018D01*
X145351605Y-90268154D01*
X145356664Y-90279689D01*
X145403782Y-90403930D01*
X145403782Y-90403931D01*
X145440034Y-90456450D01*
X145500417Y-90543929D01*
X145587976Y-90621499D01*
X145627750Y-90656736D01*
X145754642Y-90723334D01*
X145778375Y-90735790D01*
X145943544Y-90776500D01*
X146113656Y-90776500D01*
X146278825Y-90735790D01*
X146358292Y-90694081D01*
X146429449Y-90656736D01*
X146429450Y-90656734D01*
X146429452Y-90656734D01*
X146556783Y-90543929D01*
X146653418Y-90403930D01*
X146713740Y-90244872D01*
X146729100Y-90118372D01*
X146729100Y-88987500D01*
X152702843Y-88987500D01*
X152721426Y-89176181D01*
X152721427Y-89176183D01*
X152776463Y-89357615D01*
X152776464Y-89357618D01*
X152776465Y-89357619D01*
X152776466Y-89357622D01*
X152865834Y-89524818D01*
X152865838Y-89524825D01*
X152986116Y-89671383D01*
X153132674Y-89791661D01*
X153132681Y-89791665D01*
X153299877Y-89881033D01*
X153299878Y-89881033D01*
X153299885Y-89881037D01*
X153481317Y-89936073D01*
X153481316Y-89936073D01*
X153498233Y-89937739D01*
X153670000Y-89954657D01*
X153858683Y-89936073D01*
X154040115Y-89881037D01*
X154207324Y-89791662D01*
X154353883Y-89671383D01*
X154474162Y-89524824D01*
X154563537Y-89357615D01*
X154618573Y-89176183D01*
X154637157Y-88987500D01*
X154618573Y-88798817D01*
X154563537Y-88617385D01*
X154505108Y-88508072D01*
X154474165Y-88450181D01*
X154474161Y-88450174D01*
X154353883Y-88303616D01*
X154207325Y-88183338D01*
X154207318Y-88183334D01*
X154040122Y-88093966D01*
X154040119Y-88093965D01*
X154040118Y-88093964D01*
X154040115Y-88093963D01*
X153858683Y-88038927D01*
X153858681Y-88038926D01*
X153858683Y-88038926D01*
X153670000Y-88020343D01*
X153481318Y-88038926D01*
X153393825Y-88065467D01*
X153299885Y-88093963D01*
X153299882Y-88093964D01*
X153299880Y-88093965D01*
X153299877Y-88093966D01*
X153132681Y-88183334D01*
X153132674Y-88183338D01*
X152986116Y-88303616D01*
X152865838Y-88450174D01*
X152865834Y-88450181D01*
X152776466Y-88617377D01*
X152776465Y-88617380D01*
X152776464Y-88617382D01*
X152776463Y-88617385D01*
X152767156Y-88648068D01*
X152721426Y-88798818D01*
X152702843Y-88987500D01*
X146729100Y-88987500D01*
X146729100Y-88933628D01*
X146713740Y-88807128D01*
X146710588Y-88798818D01*
X146653417Y-88648068D01*
X146619076Y-88598318D01*
X146556783Y-88508071D01*
X146429452Y-88395266D01*
X146423918Y-88392361D01*
X146395472Y-88377431D01*
X146345261Y-88328846D01*
X146329100Y-88267636D01*
X146329100Y-88243036D01*
X146330289Y-88225905D01*
X146331371Y-88218139D01*
X146331373Y-88218135D01*
X146329232Y-88171820D01*
X146329100Y-88166095D01*
X146329100Y-88148059D01*
X146328646Y-88143166D01*
X146327417Y-88132580D01*
X146326185Y-88105908D01*
X146323388Y-88099575D01*
X146314932Y-88072268D01*
X146313661Y-88065467D01*
X146299599Y-88042756D01*
X146291598Y-88027578D01*
X146280806Y-88003135D01*
X146275909Y-87998238D01*
X146258163Y-87975834D01*
X146254769Y-87970353D01*
X146254519Y-87969948D01*
X146254518Y-87969947D01*
X146254517Y-87969946D01*
X146233202Y-87953850D01*
X146220248Y-87942577D01*
X146118562Y-87840891D01*
X146107287Y-87827935D01*
X146102555Y-87821668D01*
X146068283Y-87790425D01*
X146064160Y-87786489D01*
X146051397Y-87773726D01*
X146051396Y-87773725D01*
X146051394Y-87773723D01*
X146047677Y-87770637D01*
X146039279Y-87763984D01*
X146019533Y-87745984D01*
X146013070Y-87743480D01*
X145987792Y-87730156D01*
X145982081Y-87726244D01*
X145982078Y-87726243D01*
X145982079Y-87726243D01*
X145956083Y-87720128D01*
X145939689Y-87715051D01*
X145914774Y-87705400D01*
X145914773Y-87705400D01*
X145907849Y-87705400D01*
X145879458Y-87702106D01*
X145872719Y-87700521D01*
X145846266Y-87704211D01*
X145829136Y-87705400D01*
X144967815Y-87705400D01*
X144945857Y-87702337D01*
X144936808Y-87701499D01*
X144936807Y-87701499D01*
X144907540Y-87704211D01*
X144900417Y-87704871D01*
X144888976Y-87705400D01*
X144880754Y-87705400D01*
X144872669Y-87706911D01*
X144861339Y-87708491D01*
X144824939Y-87711864D01*
X144816244Y-87714338D01*
X144806608Y-87717568D01*
X144798163Y-87720840D01*
X144767094Y-87740076D01*
X144757096Y-87745646D01*
X144724369Y-87761942D01*
X144717147Y-87767396D01*
X144709351Y-87773870D01*
X144702644Y-87779984D01*
X144680626Y-87809141D01*
X144673313Y-87817948D01*
X144648685Y-87844964D01*
X144643922Y-87852656D01*
X144638985Y-87861520D01*
X144634943Y-87869637D01*
X144624943Y-87904784D01*
X144621304Y-87915641D01*
X144608099Y-87949726D01*
X144606429Y-87958662D01*
X144605037Y-87968645D01*
X144604199Y-87977691D01*
X144605479Y-87991506D01*
X144592064Y-88060076D01*
X144543707Y-88110508D01*
X144530765Y-88116867D01*
X144464047Y-88161447D01*
X144419732Y-88227769D01*
X144419731Y-88227770D01*
X144408100Y-88286247D01*
X144408100Y-89419137D01*
X144388415Y-89486176D01*
X144335611Y-89531931D01*
X144331555Y-89533697D01*
X144308368Y-89543301D01*
X144308367Y-89543302D01*
X144188149Y-89635549D01*
X144107573Y-89740558D01*
X144095900Y-89755770D01*
X144037913Y-89895763D01*
X144037912Y-89895765D01*
X144018134Y-90045999D01*
X144018134Y-90046000D01*
X139399066Y-90046000D01*
X139379287Y-89895764D01*
X139321298Y-89755767D01*
X139229051Y-89635549D01*
X139108833Y-89543302D01*
X139085644Y-89533696D01*
X139031242Y-89489855D01*
X139009179Y-89423560D01*
X139009100Y-89419137D01*
X139009100Y-88286249D01*
X139009099Y-88286247D01*
X138997468Y-88227770D01*
X138997467Y-88227769D01*
X138953152Y-88161447D01*
X138876677Y-88110348D01*
X138877341Y-88109353D01*
X138832766Y-88073432D01*
X138811151Y-88014151D01*
X138809627Y-87997702D01*
X138809100Y-87986276D01*
X138809100Y-87978055D01*
X138807590Y-87969979D01*
X138806007Y-87958631D01*
X138802635Y-87922240D01*
X138800148Y-87913499D01*
X138796950Y-87903959D01*
X138793661Y-87895470D01*
X138793661Y-87895467D01*
X138793659Y-87895464D01*
X138793658Y-87895461D01*
X138774421Y-87864392D01*
X138768852Y-87854396D01*
X138752558Y-87821672D01*
X138752556Y-87821670D01*
X138752555Y-87821668D01*
X138747075Y-87814411D01*
X138740661Y-87806686D01*
X138734516Y-87799945D01*
X138705350Y-87777920D01*
X138696549Y-87770612D01*
X138669533Y-87745984D01*
X138669531Y-87745983D01*
X138669529Y-87745981D01*
X138661832Y-87741215D01*
X138652990Y-87736290D01*
X138644864Y-87732243D01*
X138609720Y-87722244D01*
X138598865Y-87718606D01*
X138564772Y-87705399D01*
X138555836Y-87703729D01*
X138545857Y-87702337D01*
X138536808Y-87701499D01*
X138536807Y-87701499D01*
X138507540Y-87704211D01*
X138500417Y-87704871D01*
X138488976Y-87705400D01*
X137625738Y-87705400D01*
X137608610Y-87704211D01*
X137600838Y-87703127D01*
X137600835Y-87703127D01*
X137560572Y-87704988D01*
X137554520Y-87705268D01*
X137548795Y-87705400D01*
X137530756Y-87705400D01*
X137530751Y-87705400D01*
X137525926Y-87705848D01*
X137515297Y-87707081D01*
X137488608Y-87708315D01*
X137482263Y-87711115D01*
X137454980Y-87719565D01*
X137448168Y-87720838D01*
X137448167Y-87720839D01*
X137425457Y-87734899D01*
X137410278Y-87742900D01*
X137385835Y-87753693D01*
X137380936Y-87758593D01*
X137358542Y-87776331D01*
X137352648Y-87779980D01*
X137336549Y-87801298D01*
X137325279Y-87814248D01*
X137223586Y-87915941D01*
X137210635Y-87927212D01*
X137204367Y-87931944D01*
X137173122Y-87966218D01*
X137169174Y-87970353D01*
X137156427Y-87983100D01*
X137153346Y-87986811D01*
X137146685Y-87995219D01*
X137128683Y-88014966D01*
X137128683Y-88014967D01*
X137126178Y-88021433D01*
X137112859Y-88046702D01*
X137108945Y-88052415D01*
X137108943Y-88052420D01*
X137102828Y-88078417D01*
X137097751Y-88094813D01*
X137088100Y-88119726D01*
X137088100Y-88126651D01*
X137084806Y-88155041D01*
X137083221Y-88161777D01*
X137083221Y-88161782D01*
X137086911Y-88188233D01*
X137088100Y-88205364D01*
X137088100Y-88267636D01*
X137068415Y-88334675D01*
X137021728Y-88377431D01*
X136987751Y-88395264D01*
X136987748Y-88395266D01*
X136925770Y-88450174D01*
X136860416Y-88508072D01*
X136763782Y-88648068D01*
X136703460Y-88807125D01*
X136703459Y-88807131D01*
X136688100Y-88933625D01*
X136688100Y-90118374D01*
X127500500Y-90118374D01*
X127500500Y-89863296D01*
X127520185Y-89796257D01*
X127572989Y-89750502D01*
X127642147Y-89740558D01*
X127703165Y-89767443D01*
X127732674Y-89791661D01*
X127732681Y-89791665D01*
X127899877Y-89881033D01*
X127899878Y-89881033D01*
X127899885Y-89881037D01*
X128081317Y-89936073D01*
X128081316Y-89936073D01*
X128098233Y-89937739D01*
X128270000Y-89954657D01*
X128458683Y-89936073D01*
X128640115Y-89881037D01*
X128807324Y-89791662D01*
X128953883Y-89671383D01*
X129074162Y-89524824D01*
X129163537Y-89357615D01*
X129218573Y-89176183D01*
X129237157Y-88987500D01*
X129218573Y-88798817D01*
X129163537Y-88617385D01*
X129105108Y-88508072D01*
X129074165Y-88450181D01*
X129074161Y-88450174D01*
X128953883Y-88303616D01*
X128807325Y-88183338D01*
X128807318Y-88183334D01*
X128640122Y-88093966D01*
X128640119Y-88093965D01*
X128640118Y-88093964D01*
X128640115Y-88093963D01*
X128458683Y-88038927D01*
X128458681Y-88038926D01*
X128458683Y-88038926D01*
X128270000Y-88020343D01*
X128081318Y-88038926D01*
X127993825Y-88065467D01*
X127899885Y-88093963D01*
X127899882Y-88093964D01*
X127899880Y-88093965D01*
X127899877Y-88093966D01*
X127732681Y-88183334D01*
X127732674Y-88183338D01*
X127703164Y-88207557D01*
X127638853Y-88234869D01*
X127569986Y-88223077D01*
X127518426Y-88175925D01*
X127500500Y-88111703D01*
X127500500Y-87323296D01*
X127520185Y-87256257D01*
X127572989Y-87210502D01*
X127642147Y-87200558D01*
X127703165Y-87227443D01*
X127732674Y-87251661D01*
X127732681Y-87251665D01*
X127899877Y-87341033D01*
X127899878Y-87341033D01*
X127899885Y-87341037D01*
X128081317Y-87396073D01*
X128081316Y-87396073D01*
X128098233Y-87397739D01*
X128270000Y-87414657D01*
X128458683Y-87396073D01*
X128640115Y-87341037D01*
X128807324Y-87251662D01*
X128953883Y-87131383D01*
X129074162Y-86984824D01*
X129163537Y-86817615D01*
X129218573Y-86636183D01*
X129237157Y-86447500D01*
X129228539Y-86360000D01*
X139226340Y-86360000D01*
X139246126Y-86548256D01*
X139246127Y-86548259D01*
X139304618Y-86728277D01*
X139304621Y-86728284D01*
X139399267Y-86892216D01*
X139504499Y-87009088D01*
X139525929Y-87032888D01*
X139679065Y-87144148D01*
X139679070Y-87144151D01*
X139851992Y-87221142D01*
X139851997Y-87221144D01*
X140037154Y-87260500D01*
X140037155Y-87260500D01*
X140043622Y-87261180D01*
X140043406Y-87263232D01*
X140101139Y-87280185D01*
X140146894Y-87332989D01*
X140158100Y-87384500D01*
X140158100Y-87981500D01*
X140138415Y-88048539D01*
X140085611Y-88094294D01*
X140034100Y-88105500D01*
X139788847Y-88105500D01*
X139730370Y-88117131D01*
X139730369Y-88117132D01*
X139664047Y-88161447D01*
X139619732Y-88227769D01*
X139619731Y-88227770D01*
X139608100Y-88286247D01*
X139608100Y-89565752D01*
X139619731Y-89624229D01*
X139619732Y-89624230D01*
X139664047Y-89690552D01*
X139730369Y-89734867D01*
X139730370Y-89734868D01*
X139788847Y-89746499D01*
X139788850Y-89746500D01*
X139788852Y-89746500D01*
X140128350Y-89746500D01*
X140184408Y-89735349D01*
X140232792Y-89735349D01*
X140288849Y-89746500D01*
X140288852Y-89746500D01*
X140628350Y-89746500D01*
X140684408Y-89735349D01*
X140732792Y-89735349D01*
X140788849Y-89746500D01*
X140788852Y-89746500D01*
X141128350Y-89746500D01*
X141184408Y-89735349D01*
X141232792Y-89735349D01*
X141288849Y-89746500D01*
X141288852Y-89746500D01*
X141628350Y-89746500D01*
X141684408Y-89735349D01*
X141732792Y-89735349D01*
X141788849Y-89746500D01*
X141788852Y-89746500D01*
X142128350Y-89746500D01*
X142184408Y-89735349D01*
X142232792Y-89735349D01*
X142288849Y-89746500D01*
X142288852Y-89746500D01*
X142628350Y-89746500D01*
X142684408Y-89735349D01*
X142732792Y-89735349D01*
X142788849Y-89746500D01*
X142788852Y-89746500D01*
X143128350Y-89746500D01*
X143184408Y-89735349D01*
X143232792Y-89735349D01*
X143288849Y-89746500D01*
X143288852Y-89746500D01*
X143628350Y-89746500D01*
X143628351Y-89746499D01*
X143643168Y-89743552D01*
X143686829Y-89734868D01*
X143686829Y-89734867D01*
X143686831Y-89734867D01*
X143753152Y-89690552D01*
X143797467Y-89624231D01*
X143797467Y-89624229D01*
X143797468Y-89624229D01*
X143809099Y-89565752D01*
X143809100Y-89565750D01*
X143809100Y-88286249D01*
X143809099Y-88286247D01*
X143797468Y-88227773D01*
X143797467Y-88227770D01*
X143797467Y-88227769D01*
X143779996Y-88201622D01*
X143759120Y-88134947D01*
X143759100Y-88132734D01*
X143759100Y-87189481D01*
X143778785Y-87122442D01*
X143810215Y-87089163D01*
X143839182Y-87068116D01*
X143887671Y-87032888D01*
X144014333Y-86892216D01*
X144108979Y-86728284D01*
X144167474Y-86548256D01*
X144178064Y-86447500D01*
X152702843Y-86447500D01*
X152721426Y-86636181D01*
X152721427Y-86636183D01*
X152776463Y-86817615D01*
X152776464Y-86817618D01*
X152776465Y-86817619D01*
X152776466Y-86817622D01*
X152865834Y-86984818D01*
X152865838Y-86984825D01*
X152986116Y-87131383D01*
X153132674Y-87251661D01*
X153132681Y-87251665D01*
X153299877Y-87341033D01*
X153299878Y-87341033D01*
X153299885Y-87341037D01*
X153481317Y-87396073D01*
X153481316Y-87396073D01*
X153498233Y-87397739D01*
X153670000Y-87414657D01*
X153858683Y-87396073D01*
X154040115Y-87341037D01*
X154207324Y-87251662D01*
X154353883Y-87131383D01*
X154474162Y-86984824D01*
X154563537Y-86817615D01*
X154618573Y-86636183D01*
X154637157Y-86447500D01*
X154618573Y-86258817D01*
X154563537Y-86077385D01*
X154563533Y-86077377D01*
X154474165Y-85910181D01*
X154474161Y-85910174D01*
X154353883Y-85763616D01*
X154207325Y-85643338D01*
X154207318Y-85643334D01*
X154040122Y-85553966D01*
X154040119Y-85553965D01*
X154040118Y-85553964D01*
X154040115Y-85553963D01*
X153858683Y-85498927D01*
X153858681Y-85498926D01*
X153858683Y-85498926D01*
X153670000Y-85480343D01*
X153481318Y-85498926D01*
X153374194Y-85531421D01*
X153299885Y-85553963D01*
X153299882Y-85553964D01*
X153299880Y-85553965D01*
X153299877Y-85553966D01*
X153132681Y-85643334D01*
X153132674Y-85643338D01*
X152986116Y-85763616D01*
X152865838Y-85910174D01*
X152865834Y-85910181D01*
X152776466Y-86077377D01*
X152776465Y-86077380D01*
X152721426Y-86258818D01*
X152702843Y-86447500D01*
X144178064Y-86447500D01*
X144187260Y-86360000D01*
X144167474Y-86171744D01*
X144108979Y-85991716D01*
X144014333Y-85827784D01*
X143887671Y-85687112D01*
X143887670Y-85687111D01*
X143734534Y-85575851D01*
X143734529Y-85575848D01*
X143561607Y-85498857D01*
X143561602Y-85498855D01*
X143415801Y-85467865D01*
X143376446Y-85459500D01*
X143187154Y-85459500D01*
X143154697Y-85466398D01*
X143001997Y-85498855D01*
X143001992Y-85498857D01*
X142829070Y-85575848D01*
X142829065Y-85575851D01*
X142675929Y-85687111D01*
X142549266Y-85827785D01*
X142454621Y-85991715D01*
X142454618Y-85991722D01*
X142426785Y-86077385D01*
X142396126Y-86171744D01*
X142376340Y-86360000D01*
X142396126Y-86548256D01*
X142396127Y-86548259D01*
X142454618Y-86728277D01*
X142454621Y-86728284D01*
X142549267Y-86892216D01*
X142654499Y-87009088D01*
X142675929Y-87032888D01*
X142829065Y-87144148D01*
X142829070Y-87144151D01*
X142955760Y-87200558D01*
X143001997Y-87221144D01*
X143059883Y-87233447D01*
X143121362Y-87266639D01*
X143155139Y-87327801D01*
X143158100Y-87354737D01*
X143158100Y-87981500D01*
X143138415Y-88048539D01*
X143085611Y-88094294D01*
X143034100Y-88105500D01*
X142788852Y-88105500D01*
X142732790Y-88116651D01*
X142684410Y-88116651D01*
X142628348Y-88105500D01*
X142288852Y-88105500D01*
X142232790Y-88116651D01*
X142184410Y-88116651D01*
X142128348Y-88105500D01*
X141788852Y-88105500D01*
X141732790Y-88116651D01*
X141684410Y-88116651D01*
X141628348Y-88105500D01*
X141288852Y-88105500D01*
X141232790Y-88116651D01*
X141184410Y-88116651D01*
X141128348Y-88105500D01*
X140883100Y-88105500D01*
X140816061Y-88085815D01*
X140770306Y-88033011D01*
X140759100Y-87981500D01*
X140759100Y-87056688D01*
X140778785Y-86989649D01*
X140790950Y-86973716D01*
X140809562Y-86953043D01*
X140864333Y-86892216D01*
X140958979Y-86728284D01*
X141017474Y-86548256D01*
X141037260Y-86360000D01*
X141017474Y-86171744D01*
X140958979Y-85991716D01*
X140864333Y-85827784D01*
X140737671Y-85687112D01*
X140737670Y-85687111D01*
X140584534Y-85575851D01*
X140584529Y-85575848D01*
X140411607Y-85498857D01*
X140411602Y-85498855D01*
X140265801Y-85467865D01*
X140226446Y-85459500D01*
X140037154Y-85459500D01*
X140004697Y-85466398D01*
X139851997Y-85498855D01*
X139851992Y-85498857D01*
X139679070Y-85575848D01*
X139679065Y-85575851D01*
X139525929Y-85687111D01*
X139399266Y-85827785D01*
X139304621Y-85991715D01*
X139304618Y-85991722D01*
X139276785Y-86077385D01*
X139246126Y-86171744D01*
X139226340Y-86360000D01*
X129228539Y-86360000D01*
X129218573Y-86258817D01*
X129163537Y-86077385D01*
X129163533Y-86077377D01*
X129074165Y-85910181D01*
X129074161Y-85910174D01*
X128953883Y-85763616D01*
X128807325Y-85643338D01*
X128807318Y-85643334D01*
X128640122Y-85553966D01*
X128640119Y-85553965D01*
X128640118Y-85553964D01*
X128640115Y-85553963D01*
X128458683Y-85498927D01*
X128458681Y-85498926D01*
X128458683Y-85498926D01*
X128270000Y-85480343D01*
X128081318Y-85498926D01*
X127974194Y-85531421D01*
X127899885Y-85553963D01*
X127899882Y-85553964D01*
X127899880Y-85553965D01*
X127899877Y-85553966D01*
X127732681Y-85643334D01*
X127732674Y-85643338D01*
X127703164Y-85667557D01*
X127638853Y-85694869D01*
X127569986Y-85683077D01*
X127518426Y-85635925D01*
X127500500Y-85571703D01*
X127500500Y-84783296D01*
X127520185Y-84716257D01*
X127572989Y-84670502D01*
X127642147Y-84660558D01*
X127703165Y-84687443D01*
X127732674Y-84711661D01*
X127732681Y-84711665D01*
X127899877Y-84801033D01*
X127899878Y-84801033D01*
X127899885Y-84801037D01*
X128081317Y-84856073D01*
X128081316Y-84856073D01*
X128098233Y-84857739D01*
X128270000Y-84874657D01*
X128458683Y-84856073D01*
X128640115Y-84801037D01*
X128807324Y-84711662D01*
X128953883Y-84591383D01*
X129074162Y-84444824D01*
X129163537Y-84277615D01*
X129218573Y-84096183D01*
X129237157Y-83907500D01*
X152702843Y-83907500D01*
X152721426Y-84096181D01*
X152721427Y-84096183D01*
X152776463Y-84277615D01*
X152776464Y-84277618D01*
X152776465Y-84277619D01*
X152776466Y-84277622D01*
X152865834Y-84444818D01*
X152865838Y-84444825D01*
X152986116Y-84591383D01*
X153132674Y-84711661D01*
X153132681Y-84711665D01*
X153299877Y-84801033D01*
X153299878Y-84801033D01*
X153299885Y-84801037D01*
X153481317Y-84856073D01*
X153481316Y-84856073D01*
X153498233Y-84857739D01*
X153670000Y-84874657D01*
X153858683Y-84856073D01*
X154040115Y-84801037D01*
X154207324Y-84711662D01*
X154353883Y-84591383D01*
X154474162Y-84444824D01*
X154563537Y-84277615D01*
X154618573Y-84096183D01*
X154637157Y-83907500D01*
X154618573Y-83718817D01*
X154563537Y-83537385D01*
X154474162Y-83370176D01*
X154474161Y-83370174D01*
X154353883Y-83223616D01*
X154207325Y-83103338D01*
X154207318Y-83103334D01*
X154040122Y-83013966D01*
X154040119Y-83013965D01*
X154040118Y-83013964D01*
X154040115Y-83013963D01*
X153858683Y-82958927D01*
X153858681Y-82958926D01*
X153858683Y-82958926D01*
X153670000Y-82940343D01*
X153481318Y-82958926D01*
X153374194Y-82991421D01*
X153299885Y-83013963D01*
X153299882Y-83013964D01*
X153299880Y-83013965D01*
X153299877Y-83013966D01*
X153132681Y-83103334D01*
X153132674Y-83103338D01*
X152986116Y-83223616D01*
X152865838Y-83370174D01*
X152865834Y-83370181D01*
X152776466Y-83537377D01*
X152776465Y-83537380D01*
X152721426Y-83718818D01*
X152702843Y-83907500D01*
X129237157Y-83907500D01*
X129218573Y-83718817D01*
X129163537Y-83537385D01*
X129074162Y-83370176D01*
X129074161Y-83370174D01*
X128953883Y-83223616D01*
X128807325Y-83103338D01*
X128807318Y-83103334D01*
X128640122Y-83013966D01*
X128640119Y-83013965D01*
X128640118Y-83013964D01*
X128640115Y-83013963D01*
X128458683Y-82958927D01*
X128458681Y-82958926D01*
X128458683Y-82958926D01*
X128270000Y-82940343D01*
X128081318Y-82958926D01*
X127974194Y-82991421D01*
X127899885Y-83013963D01*
X127899882Y-83013964D01*
X127899880Y-83013965D01*
X127899877Y-83013966D01*
X127732681Y-83103334D01*
X127732674Y-83103338D01*
X127703164Y-83127557D01*
X127638853Y-83154869D01*
X127569986Y-83143077D01*
X127518426Y-83095925D01*
X127500500Y-83031703D01*
X127500500Y-82243296D01*
X127520185Y-82176257D01*
X127572989Y-82130502D01*
X127642147Y-82120558D01*
X127703165Y-82147443D01*
X127732674Y-82171661D01*
X127732681Y-82171665D01*
X127899877Y-82261033D01*
X127899878Y-82261033D01*
X127899885Y-82261037D01*
X128081317Y-82316073D01*
X128081316Y-82316073D01*
X128098233Y-82317739D01*
X128270000Y-82334657D01*
X128458683Y-82316073D01*
X128640115Y-82261037D01*
X128807324Y-82171662D01*
X128953883Y-82051383D01*
X129074162Y-81904824D01*
X129163537Y-81737615D01*
X129218573Y-81556183D01*
X129237157Y-81367500D01*
X129228539Y-81280000D01*
X139226340Y-81280000D01*
X139246126Y-81468256D01*
X139246127Y-81468259D01*
X139304618Y-81648277D01*
X139304621Y-81648284D01*
X139399267Y-81812216D01*
X139482652Y-81904824D01*
X139525929Y-81952888D01*
X139679065Y-82064148D01*
X139679070Y-82064151D01*
X139851992Y-82141142D01*
X139851997Y-82141144D01*
X140037154Y-82180500D01*
X140037155Y-82180500D01*
X140226444Y-82180500D01*
X140226446Y-82180500D01*
X140411603Y-82141144D01*
X140584530Y-82064151D01*
X140737671Y-81952888D01*
X140864333Y-81812216D01*
X140958979Y-81648284D01*
X141017474Y-81468256D01*
X141037260Y-81280000D01*
X142376340Y-81280000D01*
X142396126Y-81468256D01*
X142396127Y-81468259D01*
X142454618Y-81648277D01*
X142454621Y-81648284D01*
X142549267Y-81812216D01*
X142632652Y-81904824D01*
X142675929Y-81952888D01*
X142829065Y-82064148D01*
X142829070Y-82064151D01*
X143001992Y-82141142D01*
X143001997Y-82141144D01*
X143187154Y-82180500D01*
X143187155Y-82180500D01*
X143376444Y-82180500D01*
X143376446Y-82180500D01*
X143561603Y-82141144D01*
X143734530Y-82064151D01*
X143887671Y-81952888D01*
X144014333Y-81812216D01*
X144108979Y-81648284D01*
X144167474Y-81468256D01*
X144178064Y-81367500D01*
X152702843Y-81367500D01*
X152721426Y-81556181D01*
X152721427Y-81556183D01*
X152776463Y-81737615D01*
X152776464Y-81737618D01*
X152776465Y-81737619D01*
X152776466Y-81737622D01*
X152865834Y-81904818D01*
X152865838Y-81904825D01*
X152986116Y-82051383D01*
X153132674Y-82171661D01*
X153132681Y-82171665D01*
X153299877Y-82261033D01*
X153299878Y-82261033D01*
X153299885Y-82261037D01*
X153481317Y-82316073D01*
X153481316Y-82316073D01*
X153498233Y-82317739D01*
X153670000Y-82334657D01*
X153858683Y-82316073D01*
X154040115Y-82261037D01*
X154207324Y-82171662D01*
X154353883Y-82051383D01*
X154474162Y-81904824D01*
X154563537Y-81737615D01*
X154618573Y-81556183D01*
X154637157Y-81367500D01*
X154618573Y-81178817D01*
X154563537Y-80997385D01*
X154563533Y-80997377D01*
X154474165Y-80830181D01*
X154474161Y-80830174D01*
X154353883Y-80683616D01*
X154207325Y-80563338D01*
X154207318Y-80563334D01*
X154040122Y-80473966D01*
X154040119Y-80473965D01*
X154040118Y-80473964D01*
X154040115Y-80473963D01*
X153858683Y-80418927D01*
X153858681Y-80418926D01*
X153858683Y-80418926D01*
X153670000Y-80400343D01*
X153481318Y-80418926D01*
X153374194Y-80451421D01*
X153299885Y-80473963D01*
X153299882Y-80473964D01*
X153299880Y-80473965D01*
X153299877Y-80473966D01*
X153132681Y-80563334D01*
X153132674Y-80563338D01*
X152986116Y-80683616D01*
X152865838Y-80830174D01*
X152865834Y-80830181D01*
X152776466Y-80997377D01*
X152776465Y-80997380D01*
X152721426Y-81178818D01*
X152702843Y-81367500D01*
X144178064Y-81367500D01*
X144187260Y-81280000D01*
X144167474Y-81091744D01*
X144108979Y-80911716D01*
X144014333Y-80747784D01*
X143887671Y-80607112D01*
X143887670Y-80607111D01*
X143734534Y-80495851D01*
X143734529Y-80495848D01*
X143561607Y-80418857D01*
X143561602Y-80418855D01*
X143415801Y-80387865D01*
X143376446Y-80379500D01*
X143187154Y-80379500D01*
X143154697Y-80386398D01*
X143001997Y-80418855D01*
X143001992Y-80418857D01*
X142829070Y-80495848D01*
X142829065Y-80495851D01*
X142675929Y-80607111D01*
X142549266Y-80747785D01*
X142454621Y-80911715D01*
X142454618Y-80911722D01*
X142426785Y-80997385D01*
X142396126Y-81091744D01*
X142376340Y-81280000D01*
X141037260Y-81280000D01*
X141017474Y-81091744D01*
X140958979Y-80911716D01*
X140864333Y-80747784D01*
X140737671Y-80607112D01*
X140737670Y-80607111D01*
X140584534Y-80495851D01*
X140584529Y-80495848D01*
X140411607Y-80418857D01*
X140411602Y-80418855D01*
X140265801Y-80387865D01*
X140226446Y-80379500D01*
X140037154Y-80379500D01*
X140004697Y-80386398D01*
X139851997Y-80418855D01*
X139851992Y-80418857D01*
X139679070Y-80495848D01*
X139679065Y-80495851D01*
X139525929Y-80607111D01*
X139399266Y-80747785D01*
X139304621Y-80911715D01*
X139304618Y-80911722D01*
X139276785Y-80997385D01*
X139246126Y-81091744D01*
X139226340Y-81280000D01*
X129228539Y-81280000D01*
X129218573Y-81178817D01*
X129163537Y-80997385D01*
X129163533Y-80997377D01*
X129074165Y-80830181D01*
X129074161Y-80830174D01*
X128953883Y-80683616D01*
X128807325Y-80563338D01*
X128807318Y-80563334D01*
X128640122Y-80473966D01*
X128640119Y-80473965D01*
X128640118Y-80473964D01*
X128640115Y-80473963D01*
X128458683Y-80418927D01*
X128458681Y-80418926D01*
X128458683Y-80418926D01*
X128270000Y-80400343D01*
X128081318Y-80418926D01*
X127974194Y-80451421D01*
X127899885Y-80473963D01*
X127899882Y-80473964D01*
X127899880Y-80473965D01*
X127899877Y-80473966D01*
X127732681Y-80563334D01*
X127732674Y-80563338D01*
X127703164Y-80587557D01*
X127638853Y-80614869D01*
X127569986Y-80603077D01*
X127518426Y-80555925D01*
X127500500Y-80491703D01*
X127500500Y-80174752D01*
X132884500Y-80174752D01*
X132896131Y-80233229D01*
X132896132Y-80233230D01*
X132940447Y-80299552D01*
X133006769Y-80343867D01*
X133006770Y-80343868D01*
X133065247Y-80355499D01*
X133065250Y-80355500D01*
X133065252Y-80355500D01*
X134904750Y-80355500D01*
X134904751Y-80355499D01*
X134919568Y-80352552D01*
X134963229Y-80343868D01*
X134963229Y-80343867D01*
X134963231Y-80343867D01*
X135029552Y-80299552D01*
X135073867Y-80233231D01*
X135073867Y-80233229D01*
X135073868Y-80233229D01*
X135085499Y-80174752D01*
X135085500Y-80174750D01*
X135085500Y-78335249D01*
X135085499Y-78335247D01*
X135073868Y-78276770D01*
X135073867Y-78276769D01*
X135029552Y-78210447D01*
X134963230Y-78166132D01*
X134963229Y-78166131D01*
X134904752Y-78154500D01*
X134904748Y-78154500D01*
X133065252Y-78154500D01*
X133065247Y-78154500D01*
X133006770Y-78166131D01*
X133006769Y-78166132D01*
X132940447Y-78210447D01*
X132896132Y-78276769D01*
X132896131Y-78276770D01*
X132884500Y-78335247D01*
X132884500Y-80174752D01*
X127500500Y-80174752D01*
X127500500Y-79703296D01*
X127520185Y-79636257D01*
X127572989Y-79590502D01*
X127642147Y-79580558D01*
X127703165Y-79607443D01*
X127732674Y-79631661D01*
X127732681Y-79631665D01*
X127899877Y-79721033D01*
X127899878Y-79721033D01*
X127899885Y-79721037D01*
X128081317Y-79776073D01*
X128081316Y-79776073D01*
X128098233Y-79777739D01*
X128270000Y-79794657D01*
X128458683Y-79776073D01*
X128640115Y-79721037D01*
X128807324Y-79631662D01*
X128953883Y-79511383D01*
X129074162Y-79364824D01*
X129163537Y-79197615D01*
X129218573Y-79016183D01*
X129237157Y-78827500D01*
X129218573Y-78638817D01*
X129163537Y-78457385D01*
X129162397Y-78455252D01*
X129074165Y-78290181D01*
X129074161Y-78290174D01*
X128953883Y-78143616D01*
X128807325Y-78023338D01*
X128807318Y-78023334D01*
X128640122Y-77933966D01*
X128640119Y-77933965D01*
X128640118Y-77933964D01*
X128640115Y-77933963D01*
X128458683Y-77878927D01*
X128458681Y-77878926D01*
X128458683Y-77878926D01*
X128270000Y-77860343D01*
X128081318Y-77878926D01*
X127974194Y-77911421D01*
X127899885Y-77933963D01*
X127899882Y-77933964D01*
X127899880Y-77933965D01*
X127899877Y-77933966D01*
X127732681Y-78023334D01*
X127732674Y-78023338D01*
X127703164Y-78047557D01*
X127638853Y-78074869D01*
X127569986Y-78063077D01*
X127518426Y-78015925D01*
X127500500Y-77951703D01*
X127500500Y-77470000D01*
X138159540Y-77470000D01*
X138179326Y-77658256D01*
X138179327Y-77658259D01*
X138237818Y-77838277D01*
X138237821Y-77838284D01*
X138332467Y-78002216D01*
X138399416Y-78076570D01*
X138459129Y-78142888D01*
X138612265Y-78254148D01*
X138612270Y-78254151D01*
X138785192Y-78331142D01*
X138785197Y-78331144D01*
X138970354Y-78370500D01*
X138970355Y-78370500D01*
X139159644Y-78370500D01*
X139159646Y-78370500D01*
X139344803Y-78331144D01*
X139517730Y-78254151D01*
X139670871Y-78142888D01*
X139797533Y-78002216D01*
X139892179Y-77838284D01*
X139950674Y-77658256D01*
X139970460Y-77470000D01*
X143239540Y-77470000D01*
X143259326Y-77658256D01*
X143259327Y-77658259D01*
X143317818Y-77838277D01*
X143317821Y-77838284D01*
X143412467Y-78002216D01*
X143479416Y-78076570D01*
X143539129Y-78142888D01*
X143692265Y-78254148D01*
X143692270Y-78254151D01*
X143865192Y-78331142D01*
X143865197Y-78331144D01*
X144050354Y-78370500D01*
X144050355Y-78370500D01*
X144239644Y-78370500D01*
X144239646Y-78370500D01*
X144424803Y-78331144D01*
X144597730Y-78254151D01*
X144750871Y-78142888D01*
X144877533Y-78002216D01*
X144972179Y-77838284D01*
X145030674Y-77658256D01*
X145050460Y-77470000D01*
X145030674Y-77281744D01*
X144972179Y-77101716D01*
X144877533Y-76937784D01*
X144750871Y-76797112D01*
X144750870Y-76797111D01*
X144597734Y-76685851D01*
X144597729Y-76685848D01*
X144424807Y-76608857D01*
X144424802Y-76608855D01*
X144279001Y-76577865D01*
X144239646Y-76569500D01*
X144050354Y-76569500D01*
X144017897Y-76576398D01*
X143865197Y-76608855D01*
X143865192Y-76608857D01*
X143692270Y-76685848D01*
X143692265Y-76685851D01*
X143539129Y-76797111D01*
X143412466Y-76937785D01*
X143317821Y-77101715D01*
X143317818Y-77101722D01*
X143274165Y-77236073D01*
X143259326Y-77281744D01*
X143239540Y-77470000D01*
X139970460Y-77470000D01*
X139950674Y-77281744D01*
X139892179Y-77101716D01*
X139797533Y-76937784D01*
X139670871Y-76797112D01*
X139670870Y-76797111D01*
X139517734Y-76685851D01*
X139517729Y-76685848D01*
X139344807Y-76608857D01*
X139344802Y-76608855D01*
X139199001Y-76577865D01*
X139159646Y-76569500D01*
X138970354Y-76569500D01*
X138937897Y-76576398D01*
X138785197Y-76608855D01*
X138785192Y-76608857D01*
X138612270Y-76685848D01*
X138612265Y-76685851D01*
X138459129Y-76797111D01*
X138332466Y-76937785D01*
X138237821Y-77101715D01*
X138237818Y-77101722D01*
X138194165Y-77236073D01*
X138179326Y-77281744D01*
X138159540Y-77470000D01*
X127500500Y-77470000D01*
X127500500Y-77163296D01*
X127520185Y-77096257D01*
X127572989Y-77050502D01*
X127642147Y-77040558D01*
X127703165Y-77067443D01*
X127732674Y-77091661D01*
X127732681Y-77091665D01*
X127899877Y-77181033D01*
X127899878Y-77181033D01*
X127899885Y-77181037D01*
X128081317Y-77236073D01*
X128081316Y-77236073D01*
X128098233Y-77237739D01*
X128270000Y-77254657D01*
X128458683Y-77236073D01*
X128640115Y-77181037D01*
X128807324Y-77091662D01*
X128953883Y-76971383D01*
X129074162Y-76824824D01*
X129163537Y-76657615D01*
X129218573Y-76476183D01*
X129237157Y-76287500D01*
X129218573Y-76098817D01*
X129163537Y-75917385D01*
X129126437Y-75847976D01*
X129074165Y-75750181D01*
X129074161Y-75750174D01*
X128953883Y-75603616D01*
X128807325Y-75483338D01*
X128807318Y-75483334D01*
X128640122Y-75393966D01*
X128640119Y-75393965D01*
X128640118Y-75393964D01*
X128640115Y-75393963D01*
X128458683Y-75338927D01*
X128458681Y-75338926D01*
X128458683Y-75338926D01*
X128270000Y-75320343D01*
X128081318Y-75338926D01*
X127991092Y-75366296D01*
X127899885Y-75393963D01*
X127899882Y-75393964D01*
X127899880Y-75393965D01*
X127899877Y-75393966D01*
X127732681Y-75483334D01*
X127732674Y-75483338D01*
X127703164Y-75507557D01*
X127638853Y-75534869D01*
X127569986Y-75523077D01*
X127518426Y-75475925D01*
X127500500Y-75411703D01*
X127500500Y-74623296D01*
X127520185Y-74556257D01*
X127572989Y-74510502D01*
X127642147Y-74500558D01*
X127703165Y-74527443D01*
X127732674Y-74551661D01*
X127732681Y-74551665D01*
X127899877Y-74641033D01*
X127899878Y-74641033D01*
X127899885Y-74641037D01*
X128081317Y-74696073D01*
X128081316Y-74696073D01*
X128098233Y-74697739D01*
X128270000Y-74714657D01*
X128458683Y-74696073D01*
X128640115Y-74641037D01*
X128807324Y-74551662D01*
X128953883Y-74431383D01*
X129074162Y-74284824D01*
X129163537Y-74117615D01*
X129218573Y-73936183D01*
X129237157Y-73747500D01*
X129218573Y-73558817D01*
X129163537Y-73377385D01*
X129074162Y-73210176D01*
X129074161Y-73210174D01*
X128953883Y-73063616D01*
X128807325Y-72943338D01*
X128807318Y-72943334D01*
X128640122Y-72853966D01*
X128640119Y-72853965D01*
X128640118Y-72853964D01*
X128640115Y-72853963D01*
X128458683Y-72798927D01*
X128458681Y-72798926D01*
X128458683Y-72798926D01*
X128270000Y-72780343D01*
X128081318Y-72798926D01*
X127974194Y-72831421D01*
X127899885Y-72853963D01*
X127899882Y-72853964D01*
X127899880Y-72853965D01*
X127899877Y-72853966D01*
X127732681Y-72943334D01*
X127732674Y-72943338D01*
X127703164Y-72967557D01*
X127638853Y-72994869D01*
X127569986Y-72983077D01*
X127518426Y-72935925D01*
X127500500Y-72871703D01*
X127500500Y-72674752D01*
X132884500Y-72674752D01*
X132896131Y-72733229D01*
X132896132Y-72733230D01*
X132940447Y-72799552D01*
X133006769Y-72843867D01*
X133006770Y-72843868D01*
X133065247Y-72855499D01*
X133065250Y-72855500D01*
X133065252Y-72855500D01*
X134904750Y-72855500D01*
X134904751Y-72855499D01*
X134919568Y-72852552D01*
X134963229Y-72843868D01*
X134963229Y-72843867D01*
X134963231Y-72843867D01*
X135029552Y-72799552D01*
X135073867Y-72733231D01*
X135073867Y-72733229D01*
X135073868Y-72733229D01*
X135085499Y-72674752D01*
X135085500Y-72674750D01*
X135085500Y-70835249D01*
X135085499Y-70835247D01*
X135073868Y-70776770D01*
X135073867Y-70776769D01*
X135029552Y-70710447D01*
X134963230Y-70666132D01*
X134963229Y-70666131D01*
X134904752Y-70654500D01*
X134904748Y-70654500D01*
X133065252Y-70654500D01*
X133065247Y-70654500D01*
X133006770Y-70666131D01*
X133006769Y-70666132D01*
X132940447Y-70710447D01*
X132896132Y-70776769D01*
X132896131Y-70776770D01*
X132884500Y-70835247D01*
X132884500Y-72674752D01*
X127500500Y-72674752D01*
X127500500Y-72083296D01*
X127520185Y-72016257D01*
X127572989Y-71970502D01*
X127642147Y-71960558D01*
X127703165Y-71987443D01*
X127732674Y-72011661D01*
X127732681Y-72011665D01*
X127899877Y-72101033D01*
X127899878Y-72101033D01*
X127899885Y-72101037D01*
X128081317Y-72156073D01*
X128081316Y-72156073D01*
X128098233Y-72157739D01*
X128270000Y-72174657D01*
X128458683Y-72156073D01*
X128640115Y-72101037D01*
X128807324Y-72011662D01*
X128953883Y-71891383D01*
X129074162Y-71744824D01*
X129163537Y-71577615D01*
X129218573Y-71396183D01*
X129237157Y-71207500D01*
X129218573Y-71018817D01*
X129163537Y-70837385D01*
X129162397Y-70835252D01*
X129074165Y-70670181D01*
X129074161Y-70670174D01*
X128953883Y-70523616D01*
X128807325Y-70403338D01*
X128807318Y-70403334D01*
X128640122Y-70313966D01*
X128640119Y-70313965D01*
X128640118Y-70313964D01*
X128640115Y-70313963D01*
X128458683Y-70258927D01*
X128458681Y-70258926D01*
X128458683Y-70258926D01*
X128270000Y-70240343D01*
X128081318Y-70258926D01*
X127974194Y-70291421D01*
X127899885Y-70313963D01*
X127899882Y-70313964D01*
X127899880Y-70313965D01*
X127899877Y-70313966D01*
X127732681Y-70403334D01*
X127732674Y-70403338D01*
X127703164Y-70427557D01*
X127638853Y-70454869D01*
X127569986Y-70443077D01*
X127518426Y-70395925D01*
X127500500Y-70331703D01*
X127500500Y-69543296D01*
X127520185Y-69476257D01*
X127572989Y-69430502D01*
X127642147Y-69420558D01*
X127703165Y-69447443D01*
X127732674Y-69471661D01*
X127732681Y-69471665D01*
X127899877Y-69561033D01*
X127899878Y-69561033D01*
X127899885Y-69561037D01*
X128081317Y-69616073D01*
X128081316Y-69616073D01*
X128098233Y-69617739D01*
X128270000Y-69634657D01*
X128458683Y-69616073D01*
X128640115Y-69561037D01*
X128807324Y-69471662D01*
X128953883Y-69351383D01*
X129074162Y-69204824D01*
X129163537Y-69037615D01*
X129218573Y-68856183D01*
X129237157Y-68667500D01*
X129218573Y-68478817D01*
X129163537Y-68297385D01*
X129163533Y-68297377D01*
X129074165Y-68130181D01*
X129074161Y-68130174D01*
X128953883Y-67983616D01*
X128807325Y-67863338D01*
X128807318Y-67863334D01*
X128640122Y-67773966D01*
X128640119Y-67773965D01*
X128640118Y-67773964D01*
X128640115Y-67773963D01*
X128458683Y-67718927D01*
X128458681Y-67718926D01*
X128458683Y-67718926D01*
X128270000Y-67700343D01*
X128081318Y-67718926D01*
X127974194Y-67751421D01*
X127899885Y-67773963D01*
X127899882Y-67773964D01*
X127899880Y-67773965D01*
X127899877Y-67773966D01*
X127732681Y-67863334D01*
X127732674Y-67863338D01*
X127703164Y-67887557D01*
X127638853Y-67914869D01*
X127569986Y-67903077D01*
X127518426Y-67855925D01*
X127500500Y-67791703D01*
X127500500Y-67003296D01*
X127520185Y-66936257D01*
X127572989Y-66890502D01*
X127642147Y-66880558D01*
X127703165Y-66907443D01*
X127732674Y-66931661D01*
X127732681Y-66931665D01*
X127899877Y-67021033D01*
X127899878Y-67021033D01*
X127899885Y-67021037D01*
X128081317Y-67076073D01*
X128081316Y-67076073D01*
X128098233Y-67077739D01*
X128270000Y-67094657D01*
X128458683Y-67076073D01*
X128640115Y-67021037D01*
X128807324Y-66931662D01*
X128953883Y-66811383D01*
X129074162Y-66664824D01*
X129163537Y-66497615D01*
X129218573Y-66316183D01*
X129237157Y-66127500D01*
X129218573Y-65938817D01*
X129163537Y-65757385D01*
X129163533Y-65757377D01*
X129074165Y-65590181D01*
X129074161Y-65590174D01*
X128953883Y-65443616D01*
X128807325Y-65323338D01*
X128807318Y-65323334D01*
X128640122Y-65233966D01*
X128640119Y-65233965D01*
X128640118Y-65233964D01*
X128640115Y-65233963D01*
X128458683Y-65178927D01*
X128458681Y-65178926D01*
X128458683Y-65178926D01*
X128270000Y-65160343D01*
X128081318Y-65178926D01*
X127974194Y-65211421D01*
X127899885Y-65233963D01*
X127899882Y-65233964D01*
X127899880Y-65233965D01*
X127899877Y-65233966D01*
X127732681Y-65323334D01*
X127732674Y-65323338D01*
X127703164Y-65347557D01*
X127638853Y-65374869D01*
X127569986Y-65363077D01*
X127518426Y-65315925D01*
X127500500Y-65251703D01*
X127500500Y-64463296D01*
X127520185Y-64396257D01*
X127572989Y-64350502D01*
X127642147Y-64340558D01*
X127703165Y-64367443D01*
X127732674Y-64391661D01*
X127732681Y-64391665D01*
X127899877Y-64481033D01*
X127899878Y-64481033D01*
X127899885Y-64481037D01*
X128081317Y-64536073D01*
X128081316Y-64536073D01*
X128098233Y-64537739D01*
X128270000Y-64554657D01*
X128458683Y-64536073D01*
X128640115Y-64481037D01*
X128807324Y-64391662D01*
X128953883Y-64271383D01*
X129074162Y-64124824D01*
X129163537Y-63957615D01*
X129218573Y-63776183D01*
X129237157Y-63587500D01*
X129218573Y-63398817D01*
X129163537Y-63217385D01*
X129074162Y-63050176D01*
X129074161Y-63050174D01*
X128953883Y-62903616D01*
X128807325Y-62783338D01*
X128807318Y-62783334D01*
X128640122Y-62693966D01*
X128640119Y-62693965D01*
X128640118Y-62693964D01*
X128640115Y-62693963D01*
X128458683Y-62638927D01*
X128458681Y-62638926D01*
X128458683Y-62638926D01*
X128270000Y-62620343D01*
X128081318Y-62638926D01*
X127974194Y-62671421D01*
X127899885Y-62693963D01*
X127899882Y-62693964D01*
X127899880Y-62693965D01*
X127899877Y-62693966D01*
X127732681Y-62783334D01*
X127732674Y-62783338D01*
X127703164Y-62807557D01*
X127638853Y-62834869D01*
X127569986Y-62823077D01*
X127518426Y-62775925D01*
X127500500Y-62711703D01*
X127500500Y-61923296D01*
X127520185Y-61856257D01*
X127572989Y-61810502D01*
X127642147Y-61800558D01*
X127703165Y-61827443D01*
X127732674Y-61851661D01*
X127732681Y-61851665D01*
X127899877Y-61941033D01*
X127899878Y-61941033D01*
X127899885Y-61941037D01*
X128081317Y-61996073D01*
X128081316Y-61996073D01*
X128098233Y-61997739D01*
X128270000Y-62014657D01*
X128458683Y-61996073D01*
X128640115Y-61941037D01*
X128807324Y-61851662D01*
X128953883Y-61731383D01*
X129074162Y-61584824D01*
X129163537Y-61417615D01*
X129218573Y-61236183D01*
X129237157Y-61047500D01*
X129218573Y-60858817D01*
X129163537Y-60677385D01*
X129119677Y-60595328D01*
X129074165Y-60510181D01*
X129074161Y-60510174D01*
X128953883Y-60363616D01*
X128807325Y-60243338D01*
X128807318Y-60243334D01*
X128640122Y-60153966D01*
X128640119Y-60153965D01*
X128640118Y-60153964D01*
X128640115Y-60153963D01*
X128458683Y-60098927D01*
X128458681Y-60098926D01*
X128458683Y-60098926D01*
X128270000Y-60080343D01*
X128081318Y-60098926D01*
X127974194Y-60131421D01*
X127899885Y-60153963D01*
X127899882Y-60153964D01*
X127899880Y-60153965D01*
X127899877Y-60153966D01*
X127732681Y-60243334D01*
X127732674Y-60243338D01*
X127703164Y-60267557D01*
X127638853Y-60294869D01*
X127569986Y-60283077D01*
X127518426Y-60235925D01*
X127500500Y-60171703D01*
X127500500Y-59576352D01*
X133110700Y-59576352D01*
X133122331Y-59634829D01*
X133122332Y-59634830D01*
X133166647Y-59701152D01*
X133232969Y-59745467D01*
X133232970Y-59745468D01*
X133291447Y-59757099D01*
X133291450Y-59757100D01*
X133291452Y-59757100D01*
X134830950Y-59757100D01*
X134830951Y-59757099D01*
X134845768Y-59754152D01*
X134889429Y-59745468D01*
X134889429Y-59745467D01*
X134889431Y-59745467D01*
X134955752Y-59701152D01*
X135000067Y-59634831D01*
X135000067Y-59634829D01*
X135000068Y-59634829D01*
X135011699Y-59576352D01*
X135011700Y-59576350D01*
X135011700Y-58036849D01*
X135011699Y-58036847D01*
X135000068Y-57978370D01*
X135000067Y-57978369D01*
X134955752Y-57912047D01*
X134889430Y-57867732D01*
X134889429Y-57867731D01*
X134830952Y-57856100D01*
X134830948Y-57856100D01*
X133291452Y-57856100D01*
X133291447Y-57856100D01*
X133232970Y-57867731D01*
X133232969Y-57867732D01*
X133166647Y-57912047D01*
X133122332Y-57978369D01*
X133122331Y-57978370D01*
X133110700Y-58036847D01*
X133110700Y-59576352D01*
X127500500Y-59576352D01*
X127500500Y-59383296D01*
X127520185Y-59316257D01*
X127572989Y-59270502D01*
X127642147Y-59260558D01*
X127703165Y-59287443D01*
X127732674Y-59311661D01*
X127732681Y-59311665D01*
X127899877Y-59401033D01*
X127899878Y-59401033D01*
X127899885Y-59401037D01*
X128081317Y-59456073D01*
X128081316Y-59456073D01*
X128098233Y-59457739D01*
X128270000Y-59474657D01*
X128458683Y-59456073D01*
X128640115Y-59401037D01*
X128807324Y-59311662D01*
X128953883Y-59191383D01*
X129074162Y-59044824D01*
X129163537Y-58877615D01*
X129218573Y-58696183D01*
X129237157Y-58507500D01*
X129218573Y-58318817D01*
X129163537Y-58137385D01*
X129109801Y-58036852D01*
X129074165Y-57970181D01*
X129074161Y-57970174D01*
X128953883Y-57823616D01*
X128807325Y-57703338D01*
X128807318Y-57703334D01*
X128640122Y-57613966D01*
X128640119Y-57613965D01*
X128640118Y-57613964D01*
X128640115Y-57613963D01*
X128458683Y-57558927D01*
X128458681Y-57558926D01*
X128458683Y-57558926D01*
X128270000Y-57540343D01*
X128081318Y-57558926D01*
X127974194Y-57591421D01*
X127899885Y-57613963D01*
X127899882Y-57613964D01*
X127899880Y-57613965D01*
X127899877Y-57613966D01*
X127732681Y-57703334D01*
X127732674Y-57703338D01*
X127703164Y-57727557D01*
X127638853Y-57754869D01*
X127569986Y-57743077D01*
X127518426Y-57695925D01*
X127500500Y-57631703D01*
X127500500Y-56843296D01*
X127520185Y-56776257D01*
X127572989Y-56730502D01*
X127642147Y-56720558D01*
X127703165Y-56747443D01*
X127732674Y-56771661D01*
X127732681Y-56771665D01*
X127899877Y-56861033D01*
X127899878Y-56861033D01*
X127899885Y-56861037D01*
X128081317Y-56916073D01*
X128081316Y-56916073D01*
X128098233Y-56917739D01*
X128270000Y-56934657D01*
X128458683Y-56916073D01*
X128640115Y-56861037D01*
X128807324Y-56771662D01*
X128953883Y-56651383D01*
X129074162Y-56504824D01*
X129163537Y-56337615D01*
X129185079Y-56266600D01*
X133106101Y-56266600D01*
X133124452Y-56452931D01*
X133124453Y-56452933D01*
X133178804Y-56632102D01*
X133267062Y-56797223D01*
X133267064Y-56797226D01*
X133385842Y-56941957D01*
X133530573Y-57060735D01*
X133530576Y-57060737D01*
X133691347Y-57146670D01*
X133695699Y-57148996D01*
X133874866Y-57203346D01*
X133874868Y-57203347D01*
X133891574Y-57204992D01*
X134061200Y-57221699D01*
X134247531Y-57203347D01*
X134426701Y-57148996D01*
X134591825Y-57060736D01*
X134736557Y-56941957D01*
X134855336Y-56797225D01*
X134943596Y-56632101D01*
X134997947Y-56452931D01*
X135016299Y-56266600D01*
X134997947Y-56080269D01*
X134943596Y-55901099D01*
X134878236Y-55778818D01*
X134855337Y-55735976D01*
X134855335Y-55735973D01*
X134736557Y-55591242D01*
X134591826Y-55472464D01*
X134591823Y-55472462D01*
X134426702Y-55384204D01*
X134247533Y-55329853D01*
X134247531Y-55329852D01*
X134061200Y-55311501D01*
X133874868Y-55329852D01*
X133874866Y-55329853D01*
X133695697Y-55384204D01*
X133530576Y-55472462D01*
X133530573Y-55472464D01*
X133385842Y-55591242D01*
X133267064Y-55735973D01*
X133267062Y-55735976D01*
X133178804Y-55901097D01*
X133124453Y-56080266D01*
X133124452Y-56080268D01*
X133106101Y-56266600D01*
X129185079Y-56266600D01*
X129218573Y-56156183D01*
X129237157Y-55967500D01*
X129218573Y-55778817D01*
X129163537Y-55597385D01*
X129104491Y-55486917D01*
X129074165Y-55430181D01*
X129074161Y-55430174D01*
X128953883Y-55283616D01*
X128807325Y-55163338D01*
X128807318Y-55163334D01*
X128640122Y-55073966D01*
X128640119Y-55073965D01*
X128640118Y-55073964D01*
X128640115Y-55073963D01*
X128458683Y-55018927D01*
X128458681Y-55018926D01*
X128458683Y-55018926D01*
X128270000Y-55000343D01*
X128081318Y-55018926D01*
X127974194Y-55051421D01*
X127899885Y-55073963D01*
X127899882Y-55073964D01*
X127899880Y-55073965D01*
X127899877Y-55073966D01*
X127732681Y-55163334D01*
X127732674Y-55163338D01*
X127703164Y-55187557D01*
X127638853Y-55214869D01*
X127569986Y-55203077D01*
X127518426Y-55155925D01*
X127500500Y-55091703D01*
X127500500Y-54303296D01*
X127520185Y-54236257D01*
X127572989Y-54190502D01*
X127642147Y-54180558D01*
X127703165Y-54207443D01*
X127732674Y-54231661D01*
X127732681Y-54231665D01*
X127899877Y-54321033D01*
X127899878Y-54321033D01*
X127899885Y-54321037D01*
X128081317Y-54376073D01*
X128081316Y-54376073D01*
X128098233Y-54377739D01*
X128270000Y-54394657D01*
X128458683Y-54376073D01*
X128640115Y-54321037D01*
X128807324Y-54231662D01*
X128953883Y-54111383D01*
X129074162Y-53964824D01*
X129163537Y-53797615D01*
X129185079Y-53726600D01*
X133106101Y-53726600D01*
X133124452Y-53912931D01*
X133124453Y-53912933D01*
X133178804Y-54092102D01*
X133267062Y-54257223D01*
X133267064Y-54257226D01*
X133385842Y-54401957D01*
X133530573Y-54520735D01*
X133530576Y-54520737D01*
X133688666Y-54605237D01*
X133695699Y-54608996D01*
X133874866Y-54663346D01*
X133874868Y-54663347D01*
X133891574Y-54664992D01*
X134061200Y-54681699D01*
X134247531Y-54663347D01*
X134426701Y-54608996D01*
X134591825Y-54520736D01*
X134736557Y-54401957D01*
X134855336Y-54257225D01*
X134878664Y-54213582D01*
X136440621Y-54213582D01*
X136444311Y-54240033D01*
X136445500Y-54257164D01*
X136445500Y-71593761D01*
X136444312Y-71610888D01*
X136443227Y-71618665D01*
X136445368Y-71664979D01*
X136445500Y-71670704D01*
X136445500Y-71688742D01*
X136445947Y-71693571D01*
X136447181Y-71704205D01*
X136448415Y-71730892D01*
X136448416Y-71730897D01*
X136451214Y-71737234D01*
X136459664Y-71764520D01*
X136460937Y-71771329D01*
X136460937Y-71771330D01*
X136460939Y-71771333D01*
X136475001Y-71794046D01*
X136482997Y-71809215D01*
X136493794Y-71833665D01*
X136493795Y-71833666D01*
X136493796Y-71833668D01*
X136498689Y-71838561D01*
X136516435Y-71860965D01*
X136520077Y-71866848D01*
X136520079Y-71866850D01*
X136520080Y-71866851D01*
X136520081Y-71866852D01*
X136541396Y-71882948D01*
X136554350Y-71894221D01*
X138653322Y-73993193D01*
X138686807Y-74054516D01*
X138681823Y-74124208D01*
X138639951Y-74180141D01*
X138616087Y-74194149D01*
X138612271Y-74195848D01*
X138612265Y-74195851D01*
X138459129Y-74307111D01*
X138332466Y-74447785D01*
X138237821Y-74611715D01*
X138237818Y-74611722D01*
X138204373Y-74714657D01*
X138179326Y-74791744D01*
X138159540Y-74980000D01*
X138179326Y-75168256D01*
X138179327Y-75168259D01*
X138237818Y-75348277D01*
X138237821Y-75348284D01*
X138332467Y-75512216D01*
X138414764Y-75603616D01*
X138459129Y-75652888D01*
X138612265Y-75764148D01*
X138612270Y-75764151D01*
X138785192Y-75841142D01*
X138785197Y-75841144D01*
X138970354Y-75880500D01*
X138970355Y-75880500D01*
X139159644Y-75880500D01*
X139159646Y-75880500D01*
X139344803Y-75841144D01*
X139517730Y-75764151D01*
X139670871Y-75652888D01*
X139797533Y-75512216D01*
X139892179Y-75348284D01*
X139950674Y-75168256D01*
X139970460Y-74980000D01*
X143239540Y-74980000D01*
X143259326Y-75168256D01*
X143259327Y-75168259D01*
X143317818Y-75348277D01*
X143317821Y-75348284D01*
X143412467Y-75512216D01*
X143494764Y-75603616D01*
X143539129Y-75652888D01*
X143692265Y-75764148D01*
X143692270Y-75764151D01*
X143865192Y-75841142D01*
X143865197Y-75841144D01*
X144050354Y-75880500D01*
X144050355Y-75880500D01*
X144239644Y-75880500D01*
X144239646Y-75880500D01*
X144424803Y-75841144D01*
X144455142Y-75827636D01*
X144524392Y-75818349D01*
X144587669Y-75847976D01*
X144593261Y-75853233D01*
X147053081Y-78313052D01*
X147086566Y-78374375D01*
X147089400Y-78400733D01*
X147089400Y-79315784D01*
X147086337Y-79337745D01*
X147085499Y-79346791D01*
X147088871Y-79383182D01*
X147089400Y-79394623D01*
X147089400Y-79402843D01*
X147089401Y-79402854D01*
X147090911Y-79410937D01*
X147092491Y-79422264D01*
X147095864Y-79458658D01*
X147098343Y-79467372D01*
X147101567Y-79476989D01*
X147104838Y-79485432D01*
X147104839Y-79485433D01*
X147120906Y-79511383D01*
X147124077Y-79516503D01*
X147129646Y-79526502D01*
X147135631Y-79538521D01*
X147145941Y-79559228D01*
X147151426Y-79566490D01*
X147157857Y-79574235D01*
X147163980Y-79580951D01*
X147193149Y-79602979D01*
X147201961Y-79610296D01*
X147228969Y-79634918D01*
X147236697Y-79639702D01*
X147245480Y-79644594D01*
X147253632Y-79648653D01*
X147253636Y-79648656D01*
X147288795Y-79658659D01*
X147299642Y-79662295D01*
X147333727Y-79675500D01*
X147333728Y-79675500D01*
X147342655Y-79677169D01*
X147352642Y-79678562D01*
X147361691Y-79679400D01*
X147361693Y-79679401D01*
X147361694Y-79679400D01*
X147373133Y-79680461D01*
X147372825Y-79683780D01*
X147422622Y-79693520D01*
X147473057Y-79741873D01*
X147489500Y-79803579D01*
X147489500Y-80294752D01*
X147501131Y-80353229D01*
X147501132Y-80353230D01*
X147545447Y-80419552D01*
X147611769Y-80463867D01*
X147611770Y-80463868D01*
X147670247Y-80475499D01*
X147670250Y-80475500D01*
X147670252Y-80475500D01*
X149509750Y-80475500D01*
X149509751Y-80475499D01*
X149524568Y-80472552D01*
X149568229Y-80463868D01*
X149568229Y-80463867D01*
X149568231Y-80463867D01*
X149634552Y-80419552D01*
X149678867Y-80353231D01*
X149678867Y-80353229D01*
X149678868Y-80353229D01*
X149690499Y-80294752D01*
X149690500Y-80294750D01*
X149690500Y-78827500D01*
X152702843Y-78827500D01*
X152721426Y-79016181D01*
X152721427Y-79016183D01*
X152776463Y-79197615D01*
X152776464Y-79197618D01*
X152776465Y-79197619D01*
X152776466Y-79197622D01*
X152865834Y-79364818D01*
X152865838Y-79364825D01*
X152986116Y-79511383D01*
X153132674Y-79631661D01*
X153132681Y-79631665D01*
X153299877Y-79721033D01*
X153299878Y-79721033D01*
X153299885Y-79721037D01*
X153481317Y-79776073D01*
X153481316Y-79776073D01*
X153498233Y-79777739D01*
X153670000Y-79794657D01*
X153858683Y-79776073D01*
X154040115Y-79721037D01*
X154207324Y-79631662D01*
X154353883Y-79511383D01*
X154474162Y-79364824D01*
X154563537Y-79197615D01*
X154618573Y-79016183D01*
X154637157Y-78827500D01*
X154618573Y-78638817D01*
X154563537Y-78457385D01*
X154562397Y-78455252D01*
X154474165Y-78290181D01*
X154474161Y-78290174D01*
X154353883Y-78143616D01*
X154207325Y-78023338D01*
X154207318Y-78023334D01*
X154040122Y-77933966D01*
X154040119Y-77933965D01*
X154040118Y-77933964D01*
X154040115Y-77933963D01*
X153858683Y-77878927D01*
X153858681Y-77878926D01*
X153858683Y-77878926D01*
X153670000Y-77860343D01*
X153481318Y-77878926D01*
X153374194Y-77911421D01*
X153299885Y-77933963D01*
X153299882Y-77933964D01*
X153299880Y-77933965D01*
X153299877Y-77933966D01*
X153132681Y-78023334D01*
X153132674Y-78023338D01*
X152986116Y-78143616D01*
X152865838Y-78290174D01*
X152865834Y-78290181D01*
X152776466Y-78457377D01*
X152776465Y-78457380D01*
X152721426Y-78638818D01*
X152702843Y-78827500D01*
X149690500Y-78827500D01*
X149690500Y-78455249D01*
X149690499Y-78455247D01*
X149678868Y-78396770D01*
X149678867Y-78396769D01*
X149634552Y-78330447D01*
X149568230Y-78286132D01*
X149568229Y-78286131D01*
X149509752Y-78274500D01*
X149509748Y-78274500D01*
X147811414Y-78274500D01*
X147744375Y-78254815D01*
X147698620Y-78202011D01*
X147687546Y-78156231D01*
X147687485Y-78154909D01*
X147684684Y-78148566D01*
X147676232Y-78121270D01*
X147674961Y-78114467D01*
X147660903Y-78091762D01*
X147652895Y-78076570D01*
X147642107Y-78052137D01*
X147642106Y-78052136D01*
X147642106Y-78052135D01*
X147637209Y-78047238D01*
X147619463Y-78024834D01*
X147618534Y-78023334D01*
X147615819Y-78018948D01*
X147615818Y-78018947D01*
X147615817Y-78018946D01*
X147594502Y-78002850D01*
X147581548Y-77991577D01*
X145877471Y-76287500D01*
X152702843Y-76287500D01*
X152721426Y-76476181D01*
X152721427Y-76476183D01*
X152776463Y-76657615D01*
X152776464Y-76657618D01*
X152776465Y-76657619D01*
X152776466Y-76657622D01*
X152865834Y-76824818D01*
X152865838Y-76824825D01*
X152986116Y-76971383D01*
X153132674Y-77091661D01*
X153132681Y-77091665D01*
X153299877Y-77181033D01*
X153299878Y-77181033D01*
X153299885Y-77181037D01*
X153481317Y-77236073D01*
X153481316Y-77236073D01*
X153498233Y-77237739D01*
X153670000Y-77254657D01*
X153858683Y-77236073D01*
X154040115Y-77181037D01*
X154207324Y-77091662D01*
X154353883Y-76971383D01*
X154474162Y-76824824D01*
X154563537Y-76657615D01*
X154618573Y-76476183D01*
X154637157Y-76287500D01*
X154618573Y-76098817D01*
X154563537Y-75917385D01*
X154526437Y-75847976D01*
X154474165Y-75750181D01*
X154474161Y-75750174D01*
X154353883Y-75603616D01*
X154207325Y-75483338D01*
X154207318Y-75483334D01*
X154040122Y-75393966D01*
X154040119Y-75393965D01*
X154040118Y-75393964D01*
X154040115Y-75393963D01*
X153858683Y-75338927D01*
X153858681Y-75338926D01*
X153858683Y-75338926D01*
X153670000Y-75320343D01*
X153481318Y-75338926D01*
X153391092Y-75366296D01*
X153299885Y-75393963D01*
X153299882Y-75393964D01*
X153299880Y-75393965D01*
X153299877Y-75393966D01*
X153132681Y-75483334D01*
X153132674Y-75483338D01*
X152986116Y-75603616D01*
X152865838Y-75750174D01*
X152865834Y-75750181D01*
X152776466Y-75917377D01*
X152776465Y-75917380D01*
X152721426Y-76098818D01*
X152702843Y-76287500D01*
X145877471Y-76287500D01*
X145017590Y-75427619D01*
X144984105Y-75366296D01*
X144987339Y-75301624D01*
X145030674Y-75168256D01*
X145050460Y-74980000D01*
X145030674Y-74791744D01*
X144972179Y-74611716D01*
X144877533Y-74447784D01*
X144750871Y-74307112D01*
X144750870Y-74307111D01*
X144597734Y-74195851D01*
X144597729Y-74195848D01*
X144424807Y-74118857D01*
X144424802Y-74118855D01*
X144279001Y-74087865D01*
X144239646Y-74079500D01*
X144050354Y-74079500D01*
X144017897Y-74086398D01*
X143865197Y-74118855D01*
X143865192Y-74118857D01*
X143692270Y-74195848D01*
X143692265Y-74195851D01*
X143539129Y-74307111D01*
X143412466Y-74447785D01*
X143317821Y-74611715D01*
X143317818Y-74611722D01*
X143284373Y-74714657D01*
X143259326Y-74791744D01*
X143239540Y-74980000D01*
X139970460Y-74980000D01*
X139950674Y-74791744D01*
X139892179Y-74611716D01*
X139797533Y-74447784D01*
X139670871Y-74307112D01*
X139670870Y-74307111D01*
X139517734Y-74195851D01*
X139517729Y-74195848D01*
X139439064Y-74160824D01*
X139385827Y-74115574D01*
X139365506Y-74048725D01*
X139365500Y-74047545D01*
X139365500Y-74047036D01*
X139366689Y-74029905D01*
X139367771Y-74022139D01*
X139367773Y-74022135D01*
X139365632Y-73975820D01*
X139365500Y-73970095D01*
X139365500Y-73952059D01*
X139365046Y-73947166D01*
X139363817Y-73936580D01*
X139363799Y-73936181D01*
X139362585Y-73909908D01*
X139359788Y-73903575D01*
X139351332Y-73876268D01*
X139350061Y-73869467D01*
X139335999Y-73846756D01*
X139327998Y-73831578D01*
X139317206Y-73807135D01*
X139312309Y-73802238D01*
X139294563Y-73779834D01*
X139290918Y-73773947D01*
X139290917Y-73773946D01*
X139269602Y-73757850D01*
X139257709Y-73747500D01*
X152702843Y-73747500D01*
X152721426Y-73936181D01*
X152738721Y-73993193D01*
X152776463Y-74117615D01*
X152776464Y-74117618D01*
X152776465Y-74117619D01*
X152776466Y-74117622D01*
X152865834Y-74284818D01*
X152865838Y-74284825D01*
X152986116Y-74431383D01*
X153132674Y-74551661D01*
X153132681Y-74551665D01*
X153299877Y-74641033D01*
X153299878Y-74641033D01*
X153299885Y-74641037D01*
X153481317Y-74696073D01*
X153481316Y-74696073D01*
X153498233Y-74697739D01*
X153670000Y-74714657D01*
X153858683Y-74696073D01*
X154040115Y-74641037D01*
X154207324Y-74551662D01*
X154353883Y-74431383D01*
X154474162Y-74284824D01*
X154563537Y-74117615D01*
X154618573Y-73936183D01*
X154637157Y-73747500D01*
X154618573Y-73558817D01*
X154563537Y-73377385D01*
X154474162Y-73210176D01*
X154474161Y-73210174D01*
X154353883Y-73063616D01*
X154207325Y-72943338D01*
X154207318Y-72943334D01*
X154040122Y-72853966D01*
X154040119Y-72853965D01*
X154040118Y-72853964D01*
X154040115Y-72853963D01*
X153858683Y-72798927D01*
X153858681Y-72798926D01*
X153858683Y-72798926D01*
X153670000Y-72780343D01*
X153481318Y-72798926D01*
X153374194Y-72831421D01*
X153299885Y-72853963D01*
X153299882Y-72853964D01*
X153299880Y-72853965D01*
X153299877Y-72853966D01*
X153132681Y-72943334D01*
X153132674Y-72943338D01*
X152986116Y-73063616D01*
X152865838Y-73210174D01*
X152865834Y-73210181D01*
X152776466Y-73377377D01*
X152776465Y-73377380D01*
X152721426Y-73558818D01*
X152702843Y-73747500D01*
X139257709Y-73747500D01*
X139256648Y-73746577D01*
X139012252Y-73502181D01*
X138978767Y-73440858D01*
X138983751Y-73371166D01*
X139025623Y-73315233D01*
X139091087Y-73290816D01*
X139099933Y-73290500D01*
X139159644Y-73290500D01*
X139159646Y-73290500D01*
X139344803Y-73251144D01*
X139517730Y-73174151D01*
X139670871Y-73062888D01*
X139797533Y-72922216D01*
X139892179Y-72758284D01*
X139950674Y-72578256D01*
X139970460Y-72390000D01*
X139950674Y-72201744D01*
X139892179Y-72021716D01*
X139797533Y-71857784D01*
X139670871Y-71717112D01*
X139641280Y-71695613D01*
X139571367Y-71644818D01*
X139528701Y-71589488D01*
X139522722Y-71519875D01*
X139555328Y-71458080D01*
X139616166Y-71423723D01*
X139644252Y-71420500D01*
X141699067Y-71420500D01*
X141766106Y-71440185D01*
X141786748Y-71456819D01*
X142884939Y-72555010D01*
X142896210Y-72567962D01*
X142900939Y-72574225D01*
X142900941Y-72574227D01*
X142900942Y-72574228D01*
X142905364Y-72578259D01*
X142935217Y-72605474D01*
X142939358Y-72609429D01*
X142952103Y-72622174D01*
X142955831Y-72625270D01*
X142964224Y-72631918D01*
X142973024Y-72639940D01*
X142983964Y-72649914D01*
X142983965Y-72649914D01*
X142983967Y-72649916D01*
X142990430Y-72652419D01*
X143015707Y-72665743D01*
X143021419Y-72669656D01*
X143047414Y-72675769D01*
X143063810Y-72680846D01*
X143088727Y-72690500D01*
X143095651Y-72690500D01*
X143124041Y-72693793D01*
X143130781Y-72695379D01*
X143153555Y-72692201D01*
X143157234Y-72691689D01*
X143174364Y-72690500D01*
X143207115Y-72690500D01*
X143274154Y-72710185D01*
X143312161Y-72754047D01*
X143314571Y-72752656D01*
X143412465Y-72922214D01*
X143539129Y-73062888D01*
X143692265Y-73174148D01*
X143692270Y-73174151D01*
X143865192Y-73251142D01*
X143865197Y-73251144D01*
X144050354Y-73290500D01*
X144050355Y-73290500D01*
X144239644Y-73290500D01*
X144239646Y-73290500D01*
X144424803Y-73251144D01*
X144597730Y-73174151D01*
X144750871Y-73062888D01*
X144877533Y-72922216D01*
X144951124Y-72794752D01*
X147489500Y-72794752D01*
X147501131Y-72853229D01*
X147501132Y-72853230D01*
X147545447Y-72919552D01*
X147611769Y-72963867D01*
X147611770Y-72963868D01*
X147670247Y-72975499D01*
X147670250Y-72975500D01*
X147670252Y-72975500D01*
X149509750Y-72975500D01*
X149509751Y-72975499D01*
X149524568Y-72972552D01*
X149568229Y-72963868D01*
X149568229Y-72963867D01*
X149568231Y-72963867D01*
X149634552Y-72919552D01*
X149678867Y-72853231D01*
X149678867Y-72853229D01*
X149678868Y-72853229D01*
X149690499Y-72794752D01*
X149690500Y-72794750D01*
X149690500Y-71207500D01*
X152702843Y-71207500D01*
X152721426Y-71396181D01*
X152724933Y-71407742D01*
X152776463Y-71577615D01*
X152776464Y-71577618D01*
X152776465Y-71577619D01*
X152776466Y-71577622D01*
X152865834Y-71744818D01*
X152865838Y-71744825D01*
X152986116Y-71891383D01*
X153132674Y-72011661D01*
X153132681Y-72011665D01*
X153299877Y-72101033D01*
X153299878Y-72101033D01*
X153299885Y-72101037D01*
X153481317Y-72156073D01*
X153481316Y-72156073D01*
X153498233Y-72157739D01*
X153670000Y-72174657D01*
X153858683Y-72156073D01*
X154040115Y-72101037D01*
X154207324Y-72011662D01*
X154353883Y-71891383D01*
X154474162Y-71744824D01*
X154563537Y-71577615D01*
X154618573Y-71396183D01*
X154637157Y-71207500D01*
X154618573Y-71018817D01*
X154563537Y-70837385D01*
X154562397Y-70835252D01*
X154474165Y-70670181D01*
X154474161Y-70670174D01*
X154353883Y-70523616D01*
X154207325Y-70403338D01*
X154207318Y-70403334D01*
X154040122Y-70313966D01*
X154040119Y-70313965D01*
X154040118Y-70313964D01*
X154040115Y-70313963D01*
X153858683Y-70258927D01*
X153858681Y-70258926D01*
X153858683Y-70258926D01*
X153670000Y-70240343D01*
X153481318Y-70258926D01*
X153374194Y-70291421D01*
X153299885Y-70313963D01*
X153299882Y-70313964D01*
X153299880Y-70313965D01*
X153299877Y-70313966D01*
X153132681Y-70403334D01*
X153132674Y-70403338D01*
X152986116Y-70523616D01*
X152865838Y-70670174D01*
X152865834Y-70670181D01*
X152776466Y-70837377D01*
X152776465Y-70837380D01*
X152776464Y-70837382D01*
X152776463Y-70837385D01*
X152764117Y-70878084D01*
X152721426Y-71018818D01*
X152702843Y-71207500D01*
X149690500Y-71207500D01*
X149690500Y-70955249D01*
X149690499Y-70955247D01*
X149678868Y-70896770D01*
X149678867Y-70896769D01*
X149634552Y-70830447D01*
X149568230Y-70786132D01*
X149568229Y-70786131D01*
X149509752Y-70774500D01*
X149509748Y-70774500D01*
X147670252Y-70774500D01*
X147670247Y-70774500D01*
X147611770Y-70786131D01*
X147611769Y-70786132D01*
X147545447Y-70830447D01*
X147501132Y-70896769D01*
X147501131Y-70896770D01*
X147489500Y-70955247D01*
X147489500Y-72794752D01*
X144951124Y-72794752D01*
X144972179Y-72758284D01*
X145030674Y-72578256D01*
X145050460Y-72390000D01*
X145030674Y-72201744D01*
X144972179Y-72021716D01*
X144877533Y-71857784D01*
X144750871Y-71717112D01*
X144733106Y-71704205D01*
X144597734Y-71605851D01*
X144597729Y-71605848D01*
X144424807Y-71528857D01*
X144424802Y-71528855D01*
X144279001Y-71497865D01*
X144239646Y-71489500D01*
X144050354Y-71489500D01*
X144017897Y-71496398D01*
X143865197Y-71528855D01*
X143865192Y-71528857D01*
X143692270Y-71605848D01*
X143692265Y-71605851D01*
X143539129Y-71717111D01*
X143412467Y-71857783D01*
X143356075Y-71955456D01*
X143305507Y-72003671D01*
X143236900Y-72016893D01*
X143172035Y-71990925D01*
X143161007Y-71981136D01*
X142134862Y-70954991D01*
X142123587Y-70942035D01*
X142118855Y-70935768D01*
X142084583Y-70904525D01*
X142080460Y-70900589D01*
X142067697Y-70887826D01*
X142067696Y-70887825D01*
X142067694Y-70887823D01*
X142063977Y-70884737D01*
X142055579Y-70878084D01*
X142035833Y-70860084D01*
X142029370Y-70857580D01*
X142004092Y-70844256D01*
X141998381Y-70840344D01*
X141998378Y-70840343D01*
X141998379Y-70840343D01*
X141972383Y-70834228D01*
X141955989Y-70829151D01*
X141931074Y-70819500D01*
X141931073Y-70819500D01*
X141924149Y-70819500D01*
X141895758Y-70816206D01*
X141889019Y-70814621D01*
X141862566Y-70818311D01*
X141845436Y-70819500D01*
X139644252Y-70819500D01*
X139577213Y-70799815D01*
X139531458Y-70747011D01*
X139521514Y-70677853D01*
X139550539Y-70614297D01*
X139571367Y-70595182D01*
X139606936Y-70569338D01*
X139670871Y-70522888D01*
X139797533Y-70382216D01*
X139892179Y-70218284D01*
X139950674Y-70038256D01*
X139970460Y-69850000D01*
X143239540Y-69850000D01*
X143259326Y-70038256D01*
X143259327Y-70038259D01*
X143317818Y-70218277D01*
X143317821Y-70218284D01*
X143412467Y-70382216D01*
X143502368Y-70482061D01*
X143539129Y-70522888D01*
X143692265Y-70634148D01*
X143692270Y-70634151D01*
X143865192Y-70711142D01*
X143865197Y-70711144D01*
X144050354Y-70750500D01*
X144050355Y-70750500D01*
X144239644Y-70750500D01*
X144239646Y-70750500D01*
X144424803Y-70711144D01*
X144597730Y-70634151D01*
X144750871Y-70522888D01*
X144877533Y-70382216D01*
X144972179Y-70218284D01*
X145030674Y-70038256D01*
X145050460Y-69850000D01*
X145030674Y-69661744D01*
X144972179Y-69481716D01*
X144877533Y-69317784D01*
X144750871Y-69177112D01*
X144750870Y-69177111D01*
X144597734Y-69065851D01*
X144597729Y-69065848D01*
X144424807Y-68988857D01*
X144424802Y-68988855D01*
X144279001Y-68957865D01*
X144239646Y-68949500D01*
X144050354Y-68949500D01*
X144017897Y-68956398D01*
X143865197Y-68988855D01*
X143865192Y-68988857D01*
X143692270Y-69065848D01*
X143692265Y-69065851D01*
X143539129Y-69177111D01*
X143412466Y-69317785D01*
X143317821Y-69481715D01*
X143317818Y-69481722D01*
X143274165Y-69616073D01*
X143259326Y-69661744D01*
X143239540Y-69850000D01*
X139970460Y-69850000D01*
X139950674Y-69661744D01*
X139892179Y-69481716D01*
X139797533Y-69317784D01*
X139670871Y-69177112D01*
X139670870Y-69177111D01*
X139517734Y-69065851D01*
X139517731Y-69065850D01*
X139517730Y-69065849D01*
X139513915Y-69064150D01*
X139460681Y-69018897D01*
X139440364Y-68952047D01*
X139459413Y-68884824D01*
X139476673Y-68863197D01*
X139672370Y-68667500D01*
X152702843Y-68667500D01*
X152721426Y-68856181D01*
X152728459Y-68879364D01*
X152776463Y-69037615D01*
X152776464Y-69037618D01*
X152776465Y-69037619D01*
X152776466Y-69037622D01*
X152865834Y-69204818D01*
X152865838Y-69204825D01*
X152986116Y-69351383D01*
X153132674Y-69471661D01*
X153132681Y-69471665D01*
X153299877Y-69561033D01*
X153299878Y-69561033D01*
X153299885Y-69561037D01*
X153481317Y-69616073D01*
X153481316Y-69616073D01*
X153498233Y-69617739D01*
X153670000Y-69634657D01*
X153858683Y-69616073D01*
X154040115Y-69561037D01*
X154207324Y-69471662D01*
X154353883Y-69351383D01*
X154474162Y-69204824D01*
X154563537Y-69037615D01*
X154618573Y-68856183D01*
X154637157Y-68667500D01*
X154618573Y-68478817D01*
X154563537Y-68297385D01*
X154563533Y-68297377D01*
X154474165Y-68130181D01*
X154474161Y-68130174D01*
X154353883Y-67983616D01*
X154207325Y-67863338D01*
X154207318Y-67863334D01*
X154040122Y-67773966D01*
X154040119Y-67773965D01*
X154040118Y-67773964D01*
X154040115Y-67773963D01*
X153858683Y-67718927D01*
X153858681Y-67718926D01*
X153858683Y-67718926D01*
X153670000Y-67700343D01*
X153481318Y-67718926D01*
X153374194Y-67751421D01*
X153299885Y-67773963D01*
X153299882Y-67773964D01*
X153299880Y-67773965D01*
X153299877Y-67773966D01*
X153132681Y-67863334D01*
X153132674Y-67863338D01*
X152986116Y-67983616D01*
X152865838Y-68130174D01*
X152865834Y-68130181D01*
X152776466Y-68297377D01*
X152776465Y-68297380D01*
X152721426Y-68478818D01*
X152702843Y-68667500D01*
X139672370Y-68667500D01*
X141506711Y-66833158D01*
X141519663Y-66821888D01*
X141525923Y-66817160D01*
X141525928Y-66817158D01*
X141557188Y-66782866D01*
X141561102Y-66778767D01*
X141573874Y-66765997D01*
X141573875Y-66765996D01*
X141576982Y-66762254D01*
X141583616Y-66753876D01*
X141601616Y-66734133D01*
X141604116Y-66727678D01*
X141617449Y-66702382D01*
X141621356Y-66696681D01*
X141627470Y-66670681D01*
X141632546Y-66654289D01*
X141642200Y-66629373D01*
X141642200Y-66622448D01*
X141645495Y-66594055D01*
X141647078Y-66587323D01*
X141647079Y-66587319D01*
X141643389Y-66560865D01*
X141642200Y-66543735D01*
X141642200Y-66040000D01*
X141969540Y-66040000D01*
X141989326Y-66228256D01*
X141989327Y-66228259D01*
X142047818Y-66408277D01*
X142047821Y-66408284D01*
X142142467Y-66572216D01*
X142225852Y-66664824D01*
X142269129Y-66712888D01*
X142422265Y-66824148D01*
X142422270Y-66824151D01*
X142595192Y-66901142D01*
X142595197Y-66901144D01*
X142780354Y-66940500D01*
X142780355Y-66940500D01*
X142969644Y-66940500D01*
X142969646Y-66940500D01*
X143154803Y-66901144D01*
X143327730Y-66824151D01*
X143480871Y-66712888D01*
X143607533Y-66572216D01*
X143702179Y-66408284D01*
X143760674Y-66228256D01*
X143780460Y-66040000D01*
X144509540Y-66040000D01*
X144529326Y-66228256D01*
X144529327Y-66228259D01*
X144587818Y-66408277D01*
X144587821Y-66408284D01*
X144682467Y-66572216D01*
X144765852Y-66664824D01*
X144809129Y-66712888D01*
X144962265Y-66824148D01*
X144962270Y-66824151D01*
X145135192Y-66901142D01*
X145135197Y-66901144D01*
X145320354Y-66940500D01*
X145320355Y-66940500D01*
X145509644Y-66940500D01*
X145509646Y-66940500D01*
X145694803Y-66901144D01*
X145867730Y-66824151D01*
X146020871Y-66712888D01*
X146147533Y-66572216D01*
X146242179Y-66408284D01*
X146300674Y-66228256D01*
X146311264Y-66127500D01*
X152702843Y-66127500D01*
X152721426Y-66316181D01*
X152721427Y-66316183D01*
X152776463Y-66497615D01*
X152776464Y-66497618D01*
X152776465Y-66497619D01*
X152776466Y-66497622D01*
X152865834Y-66664818D01*
X152865838Y-66664825D01*
X152986116Y-66811383D01*
X153132674Y-66931661D01*
X153132681Y-66931665D01*
X153299877Y-67021033D01*
X153299878Y-67021033D01*
X153299885Y-67021037D01*
X153481317Y-67076073D01*
X153481316Y-67076073D01*
X153498233Y-67077739D01*
X153670000Y-67094657D01*
X153858683Y-67076073D01*
X154040115Y-67021037D01*
X154207324Y-66931662D01*
X154353883Y-66811383D01*
X154474162Y-66664824D01*
X154563537Y-66497615D01*
X154618573Y-66316183D01*
X154637157Y-66127500D01*
X154618573Y-65938817D01*
X154563537Y-65757385D01*
X154563533Y-65757377D01*
X154474165Y-65590181D01*
X154474161Y-65590174D01*
X154353883Y-65443616D01*
X154207325Y-65323338D01*
X154207318Y-65323334D01*
X154040122Y-65233966D01*
X154040119Y-65233965D01*
X154040118Y-65233964D01*
X154040115Y-65233963D01*
X153858683Y-65178927D01*
X153858681Y-65178926D01*
X153858683Y-65178926D01*
X153670000Y-65160343D01*
X153481318Y-65178926D01*
X153374194Y-65211421D01*
X153299885Y-65233963D01*
X153299882Y-65233964D01*
X153299880Y-65233965D01*
X153299877Y-65233966D01*
X153132681Y-65323334D01*
X153132674Y-65323338D01*
X152986116Y-65443616D01*
X152865838Y-65590174D01*
X152865834Y-65590181D01*
X152776466Y-65757377D01*
X152776465Y-65757380D01*
X152721426Y-65938818D01*
X152702843Y-66127500D01*
X146311264Y-66127500D01*
X146320460Y-66040000D01*
X146300674Y-65851744D01*
X146242179Y-65671716D01*
X146147533Y-65507784D01*
X146020871Y-65367112D01*
X146020870Y-65367111D01*
X145867734Y-65255851D01*
X145867729Y-65255848D01*
X145694807Y-65178857D01*
X145694802Y-65178855D01*
X145549001Y-65147865D01*
X145509646Y-65139500D01*
X145320354Y-65139500D01*
X145287897Y-65146398D01*
X145135197Y-65178855D01*
X145135192Y-65178857D01*
X144962270Y-65255848D01*
X144962265Y-65255851D01*
X144809129Y-65367111D01*
X144682466Y-65507785D01*
X144587821Y-65671715D01*
X144587818Y-65671722D01*
X144559985Y-65757385D01*
X144529326Y-65851744D01*
X144509540Y-66040000D01*
X143780460Y-66040000D01*
X143760674Y-65851744D01*
X143702179Y-65671716D01*
X143607533Y-65507784D01*
X143480871Y-65367112D01*
X143480870Y-65367111D01*
X143327734Y-65255851D01*
X143327729Y-65255848D01*
X143154807Y-65178857D01*
X143154802Y-65178855D01*
X143009001Y-65147865D01*
X142969646Y-65139500D01*
X142780354Y-65139500D01*
X142747897Y-65146398D01*
X142595197Y-65178855D01*
X142595192Y-65178857D01*
X142422270Y-65255848D01*
X142422265Y-65255851D01*
X142269129Y-65367111D01*
X142142466Y-65507785D01*
X142047821Y-65671715D01*
X142047818Y-65671722D01*
X142019985Y-65757385D01*
X141989326Y-65851744D01*
X141969540Y-66040000D01*
X141642200Y-66040000D01*
X141642200Y-65020332D01*
X141661885Y-64953293D01*
X141678514Y-64932656D01*
X143023669Y-63587500D01*
X152702843Y-63587500D01*
X152721426Y-63776181D01*
X152721427Y-63776183D01*
X152776463Y-63957615D01*
X152776464Y-63957618D01*
X152776465Y-63957619D01*
X152776466Y-63957622D01*
X152865834Y-64124818D01*
X152865838Y-64124825D01*
X152986116Y-64271383D01*
X153132674Y-64391661D01*
X153132681Y-64391665D01*
X153299877Y-64481033D01*
X153299878Y-64481033D01*
X153299885Y-64481037D01*
X153481317Y-64536073D01*
X153481316Y-64536073D01*
X153498233Y-64537739D01*
X153670000Y-64554657D01*
X153858683Y-64536073D01*
X154040115Y-64481037D01*
X154207324Y-64391662D01*
X154353883Y-64271383D01*
X154474162Y-64124824D01*
X154563537Y-63957615D01*
X154618573Y-63776183D01*
X154637157Y-63587500D01*
X154618573Y-63398817D01*
X154563537Y-63217385D01*
X154474162Y-63050176D01*
X154474161Y-63050174D01*
X154353883Y-62903616D01*
X154207325Y-62783338D01*
X154207318Y-62783334D01*
X154040122Y-62693966D01*
X154040119Y-62693965D01*
X154040118Y-62693964D01*
X154040115Y-62693963D01*
X153858683Y-62638927D01*
X153858681Y-62638926D01*
X153858683Y-62638926D01*
X153670000Y-62620343D01*
X153481318Y-62638926D01*
X153374194Y-62671421D01*
X153299885Y-62693963D01*
X153299882Y-62693964D01*
X153299880Y-62693965D01*
X153299877Y-62693966D01*
X153132681Y-62783334D01*
X153132674Y-62783338D01*
X152986116Y-62903616D01*
X152865838Y-63050174D01*
X152865834Y-63050181D01*
X152776466Y-63217377D01*
X152776465Y-63217380D01*
X152721426Y-63398818D01*
X152702843Y-63587500D01*
X143023669Y-63587500D01*
X144310011Y-62301158D01*
X144322963Y-62289888D01*
X144329223Y-62285160D01*
X144329228Y-62285158D01*
X144360488Y-62250866D01*
X144364402Y-62246767D01*
X144377174Y-62233997D01*
X144377175Y-62233996D01*
X144380282Y-62230254D01*
X144386916Y-62221876D01*
X144404916Y-62202133D01*
X144407417Y-62195676D01*
X144420750Y-62170384D01*
X144420766Y-62170359D01*
X144424657Y-62164681D01*
X144430772Y-62138678D01*
X144435854Y-62122271D01*
X144445500Y-62097373D01*
X144445500Y-62090448D01*
X144448794Y-62062056D01*
X144450379Y-62055319D01*
X144446689Y-62028865D01*
X144445500Y-62011735D01*
X144445500Y-61544551D01*
X144465185Y-61477512D01*
X144517989Y-61431757D01*
X144587147Y-61421813D01*
X144650703Y-61450838D01*
X144676888Y-61482553D01*
X144682465Y-61492214D01*
X144809129Y-61632888D01*
X144962265Y-61744148D01*
X144962270Y-61744151D01*
X145135192Y-61821142D01*
X145135197Y-61821144D01*
X145320354Y-61860500D01*
X145320355Y-61860500D01*
X145509644Y-61860500D01*
X145509646Y-61860500D01*
X145694803Y-61821144D01*
X145867730Y-61744151D01*
X146020871Y-61632888D01*
X146147533Y-61492216D01*
X146242179Y-61328284D01*
X146300674Y-61148256D01*
X146311264Y-61047500D01*
X152702843Y-61047500D01*
X152721426Y-61236181D01*
X152721427Y-61236183D01*
X152776463Y-61417615D01*
X152776464Y-61417618D01*
X152776465Y-61417619D01*
X152776466Y-61417622D01*
X152865834Y-61584818D01*
X152865838Y-61584825D01*
X152986116Y-61731383D01*
X153132674Y-61851661D01*
X153132681Y-61851665D01*
X153299877Y-61941033D01*
X153299878Y-61941033D01*
X153299885Y-61941037D01*
X153481317Y-61996073D01*
X153481316Y-61996073D01*
X153498233Y-61997739D01*
X153670000Y-62014657D01*
X153858683Y-61996073D01*
X154040115Y-61941037D01*
X154207324Y-61851662D01*
X154353883Y-61731383D01*
X154474162Y-61584824D01*
X154563537Y-61417615D01*
X154618573Y-61236183D01*
X154637157Y-61047500D01*
X154618573Y-60858817D01*
X154563537Y-60677385D01*
X154519677Y-60595328D01*
X154474165Y-60510181D01*
X154474161Y-60510174D01*
X154353883Y-60363616D01*
X154207325Y-60243338D01*
X154207318Y-60243334D01*
X154040122Y-60153966D01*
X154040119Y-60153965D01*
X154040118Y-60153964D01*
X154040115Y-60153963D01*
X153858683Y-60098927D01*
X153858681Y-60098926D01*
X153858683Y-60098926D01*
X153670000Y-60080343D01*
X153481318Y-60098926D01*
X153374194Y-60131421D01*
X153299885Y-60153963D01*
X153299882Y-60153964D01*
X153299880Y-60153965D01*
X153299877Y-60153966D01*
X153132681Y-60243334D01*
X153132674Y-60243338D01*
X152986116Y-60363616D01*
X152865838Y-60510174D01*
X152865834Y-60510181D01*
X152776466Y-60677377D01*
X152776465Y-60677380D01*
X152776464Y-60677382D01*
X152776463Y-60677385D01*
X152753921Y-60751694D01*
X152721426Y-60858818D01*
X152702843Y-61047500D01*
X146311264Y-61047500D01*
X146320460Y-60960000D01*
X146300674Y-60771744D01*
X146242179Y-60591716D01*
X146147533Y-60427784D01*
X146020871Y-60287112D01*
X146020870Y-60287111D01*
X145867734Y-60175851D01*
X145867729Y-60175848D01*
X145694807Y-60098857D01*
X145694802Y-60098855D01*
X145549001Y-60067865D01*
X145509646Y-60059500D01*
X145411432Y-60059500D01*
X145344393Y-60039815D01*
X145298638Y-59987011D01*
X145288694Y-59917853D01*
X145317719Y-59854297D01*
X145323740Y-59847830D01*
X145335974Y-59835597D01*
X145335978Y-59835590D01*
X145339082Y-59831854D01*
X145345716Y-59823476D01*
X145363716Y-59803733D01*
X145366217Y-59797276D01*
X145379550Y-59771984D01*
X145379566Y-59771959D01*
X145383457Y-59766281D01*
X145389572Y-59740278D01*
X145394654Y-59723871D01*
X145404300Y-59698973D01*
X145404300Y-59692048D01*
X145407594Y-59663656D01*
X145409179Y-59656919D01*
X145405489Y-59630465D01*
X145404300Y-59613335D01*
X145404300Y-59576352D01*
X147969700Y-59576352D01*
X147981331Y-59634829D01*
X147981332Y-59634830D01*
X148025647Y-59701152D01*
X148091969Y-59745467D01*
X148091970Y-59745468D01*
X148150447Y-59757099D01*
X148150450Y-59757100D01*
X148150452Y-59757100D01*
X149689950Y-59757100D01*
X149689951Y-59757099D01*
X149704768Y-59754152D01*
X149748429Y-59745468D01*
X149748429Y-59745467D01*
X149748431Y-59745467D01*
X149814752Y-59701152D01*
X149859067Y-59634831D01*
X149859067Y-59634829D01*
X149859068Y-59634829D01*
X149870699Y-59576352D01*
X149870700Y-59576350D01*
X149870700Y-58507500D01*
X152702843Y-58507500D01*
X152721426Y-58696181D01*
X152721427Y-58696183D01*
X152776463Y-58877615D01*
X152776464Y-58877618D01*
X152776465Y-58877619D01*
X152776466Y-58877622D01*
X152865834Y-59044818D01*
X152865838Y-59044825D01*
X152986116Y-59191383D01*
X153132674Y-59311661D01*
X153132681Y-59311665D01*
X153299877Y-59401033D01*
X153299878Y-59401033D01*
X153299885Y-59401037D01*
X153481317Y-59456073D01*
X153481316Y-59456073D01*
X153498233Y-59457739D01*
X153670000Y-59474657D01*
X153858683Y-59456073D01*
X154040115Y-59401037D01*
X154207324Y-59311662D01*
X154353883Y-59191383D01*
X154474162Y-59044824D01*
X154563537Y-58877615D01*
X154618573Y-58696183D01*
X154637157Y-58507500D01*
X154618573Y-58318817D01*
X154563537Y-58137385D01*
X154509801Y-58036852D01*
X154474165Y-57970181D01*
X154474161Y-57970174D01*
X154353883Y-57823616D01*
X154207325Y-57703338D01*
X154207318Y-57703334D01*
X154040122Y-57613966D01*
X154040119Y-57613965D01*
X154040118Y-57613964D01*
X154040115Y-57613963D01*
X153858683Y-57558927D01*
X153858681Y-57558926D01*
X153858683Y-57558926D01*
X153670000Y-57540343D01*
X153481318Y-57558926D01*
X153374194Y-57591421D01*
X153299885Y-57613963D01*
X153299882Y-57613964D01*
X153299880Y-57613965D01*
X153299877Y-57613966D01*
X153132681Y-57703334D01*
X153132674Y-57703338D01*
X152986116Y-57823616D01*
X152865838Y-57970174D01*
X152865834Y-57970181D01*
X152776466Y-58137377D01*
X152776465Y-58137380D01*
X152721426Y-58318818D01*
X152702843Y-58507500D01*
X149870700Y-58507500D01*
X149870700Y-58036849D01*
X149870699Y-58036847D01*
X149859068Y-57978370D01*
X149859067Y-57978369D01*
X149814752Y-57912047D01*
X149748430Y-57867732D01*
X149748429Y-57867731D01*
X149689952Y-57856100D01*
X149689948Y-57856100D01*
X148150452Y-57856100D01*
X148150447Y-57856100D01*
X148091970Y-57867731D01*
X148091969Y-57867732D01*
X148025647Y-57912047D01*
X147981332Y-57978369D01*
X147981331Y-57978370D01*
X147969700Y-58036847D01*
X147969700Y-59576352D01*
X145404300Y-59576352D01*
X145404300Y-57718832D01*
X145423985Y-57651793D01*
X145440614Y-57631156D01*
X146805170Y-56266600D01*
X147965101Y-56266600D01*
X147983452Y-56452931D01*
X147983453Y-56452933D01*
X148037804Y-56632102D01*
X148126062Y-56797223D01*
X148126064Y-56797226D01*
X148244842Y-56941957D01*
X148389573Y-57060735D01*
X148389576Y-57060737D01*
X148550347Y-57146670D01*
X148554699Y-57148996D01*
X148733866Y-57203346D01*
X148733868Y-57203347D01*
X148750574Y-57204992D01*
X148920200Y-57221699D01*
X149106531Y-57203347D01*
X149285701Y-57148996D01*
X149450825Y-57060736D01*
X149595557Y-56941957D01*
X149714336Y-56797225D01*
X149802596Y-56632101D01*
X149856947Y-56452931D01*
X149875299Y-56266600D01*
X149856947Y-56080269D01*
X149822739Y-55967500D01*
X152702843Y-55967500D01*
X152721426Y-56156181D01*
X152721427Y-56156183D01*
X152776463Y-56337615D01*
X152776464Y-56337618D01*
X152776465Y-56337619D01*
X152776466Y-56337622D01*
X152865834Y-56504818D01*
X152865838Y-56504825D01*
X152986116Y-56651383D01*
X153132674Y-56771661D01*
X153132681Y-56771665D01*
X153299877Y-56861033D01*
X153299878Y-56861033D01*
X153299885Y-56861037D01*
X153481317Y-56916073D01*
X153481316Y-56916073D01*
X153498233Y-56917739D01*
X153670000Y-56934657D01*
X153858683Y-56916073D01*
X154040115Y-56861037D01*
X154207324Y-56771662D01*
X154353883Y-56651383D01*
X154474162Y-56504824D01*
X154563537Y-56337615D01*
X154618573Y-56156183D01*
X154637157Y-55967500D01*
X154618573Y-55778817D01*
X154563537Y-55597385D01*
X154504491Y-55486917D01*
X154474165Y-55430181D01*
X154474161Y-55430174D01*
X154353883Y-55283616D01*
X154207325Y-55163338D01*
X154207318Y-55163334D01*
X154040122Y-55073966D01*
X154040119Y-55073965D01*
X154040118Y-55073964D01*
X154040115Y-55073963D01*
X153858683Y-55018927D01*
X153858681Y-55018926D01*
X153858683Y-55018926D01*
X153670000Y-55000343D01*
X153481318Y-55018926D01*
X153374194Y-55051421D01*
X153299885Y-55073963D01*
X153299882Y-55073964D01*
X153299880Y-55073965D01*
X153299877Y-55073966D01*
X153132681Y-55163334D01*
X153132674Y-55163338D01*
X152986116Y-55283616D01*
X152865838Y-55430174D01*
X152865834Y-55430181D01*
X152776466Y-55597377D01*
X152776465Y-55597380D01*
X152721426Y-55778818D01*
X152702843Y-55967500D01*
X149822739Y-55967500D01*
X149802596Y-55901099D01*
X149737236Y-55778818D01*
X149714337Y-55735976D01*
X149714335Y-55735973D01*
X149595557Y-55591242D01*
X149450826Y-55472464D01*
X149450823Y-55472462D01*
X149285702Y-55384204D01*
X149106533Y-55329853D01*
X149106531Y-55329852D01*
X148920200Y-55311501D01*
X148733868Y-55329852D01*
X148733866Y-55329853D01*
X148554697Y-55384204D01*
X148389576Y-55472462D01*
X148389573Y-55472464D01*
X148244842Y-55591242D01*
X148126064Y-55735973D01*
X148126062Y-55735976D01*
X148037804Y-55901097D01*
X147983453Y-56080266D01*
X147983452Y-56080268D01*
X147965101Y-56266600D01*
X146805170Y-56266600D01*
X148431616Y-54640153D01*
X148492937Y-54606670D01*
X148555288Y-54609174D01*
X148733869Y-54663347D01*
X148920200Y-54681699D01*
X149106531Y-54663347D01*
X149285701Y-54608996D01*
X149450825Y-54520736D01*
X149595557Y-54401957D01*
X149714336Y-54257225D01*
X149802596Y-54092101D01*
X149856947Y-53912931D01*
X149875299Y-53726600D01*
X149856947Y-53540269D01*
X149822739Y-53427500D01*
X152702843Y-53427500D01*
X152721426Y-53616181D01*
X152721427Y-53616183D01*
X152776463Y-53797615D01*
X152776464Y-53797618D01*
X152776465Y-53797619D01*
X152776466Y-53797622D01*
X152865834Y-53964818D01*
X152865838Y-53964825D01*
X152986116Y-54111383D01*
X153132674Y-54231661D01*
X153132681Y-54231665D01*
X153299877Y-54321033D01*
X153299878Y-54321033D01*
X153299885Y-54321037D01*
X153481317Y-54376073D01*
X153481316Y-54376073D01*
X153498233Y-54377739D01*
X153670000Y-54394657D01*
X153858683Y-54376073D01*
X154040115Y-54321037D01*
X154207324Y-54231662D01*
X154353883Y-54111383D01*
X154474162Y-53964824D01*
X154563537Y-53797615D01*
X154618573Y-53616183D01*
X154637157Y-53427500D01*
X154618573Y-53238817D01*
X154563537Y-53057385D01*
X154560254Y-53051242D01*
X154474165Y-52890181D01*
X154474161Y-52890174D01*
X154353883Y-52743616D01*
X154207325Y-52623338D01*
X154207318Y-52623334D01*
X154040122Y-52533966D01*
X154040119Y-52533965D01*
X154040118Y-52533964D01*
X154040115Y-52533963D01*
X153858683Y-52478927D01*
X153858681Y-52478926D01*
X153858683Y-52478926D01*
X153670000Y-52460343D01*
X153481318Y-52478926D01*
X153374194Y-52511421D01*
X153299885Y-52533963D01*
X153299882Y-52533964D01*
X153299880Y-52533965D01*
X153299877Y-52533966D01*
X153132681Y-52623334D01*
X153132674Y-52623338D01*
X152986116Y-52743616D01*
X152865838Y-52890174D01*
X152865834Y-52890181D01*
X152776466Y-53057377D01*
X152776465Y-53057380D01*
X152721426Y-53238818D01*
X152702843Y-53427500D01*
X149822739Y-53427500D01*
X149802596Y-53361099D01*
X149737236Y-53238818D01*
X149714337Y-53195976D01*
X149714335Y-53195973D01*
X149595557Y-53051242D01*
X149450826Y-52932464D01*
X149450823Y-52932462D01*
X149285702Y-52844204D01*
X149106533Y-52789853D01*
X149106531Y-52789852D01*
X148920200Y-52771501D01*
X148733868Y-52789852D01*
X148733866Y-52789853D01*
X148554697Y-52844204D01*
X148389576Y-52932462D01*
X148389573Y-52932464D01*
X148244842Y-53051242D01*
X148126064Y-53195973D01*
X148126062Y-53195976D01*
X148037804Y-53361097D01*
X147983453Y-53540266D01*
X147983452Y-53540268D01*
X147965101Y-53726600D01*
X147983452Y-53912927D01*
X147983452Y-53912929D01*
X147983453Y-53912931D01*
X148032080Y-54073233D01*
X148037624Y-54091506D01*
X148038247Y-54161373D01*
X148006644Y-54215183D01*
X144938786Y-57283041D01*
X144925835Y-57294312D01*
X144919567Y-57299044D01*
X144888322Y-57333318D01*
X144884374Y-57337453D01*
X144871627Y-57350200D01*
X144868546Y-57353911D01*
X144861885Y-57362319D01*
X144843883Y-57382066D01*
X144843883Y-57382067D01*
X144841378Y-57388533D01*
X144828059Y-57413802D01*
X144824145Y-57419515D01*
X144824143Y-57419520D01*
X144818028Y-57445517D01*
X144812951Y-57461913D01*
X144803300Y-57486826D01*
X144803300Y-57493751D01*
X144800006Y-57522141D01*
X144798421Y-57528877D01*
X144798421Y-57528882D01*
X144802111Y-57555333D01*
X144803300Y-57572464D01*
X144803300Y-57732100D01*
X144783615Y-57799139D01*
X144730811Y-57844894D01*
X144679300Y-57856100D01*
X143299500Y-57856100D01*
X143232461Y-57836415D01*
X143186706Y-57783611D01*
X143175500Y-57732100D01*
X143175500Y-57560032D01*
X143195185Y-57492993D01*
X143211815Y-57472355D01*
X143504015Y-57180154D01*
X143565338Y-57146670D01*
X143627692Y-57149176D01*
X143806266Y-57203346D01*
X143806268Y-57203347D01*
X143822974Y-57204992D01*
X143992600Y-57221699D01*
X144178931Y-57203347D01*
X144358101Y-57148996D01*
X144523225Y-57060736D01*
X144667957Y-56941957D01*
X144786736Y-56797225D01*
X144874996Y-56632101D01*
X144929347Y-56452931D01*
X144947699Y-56266600D01*
X144929347Y-56080269D01*
X144874996Y-55901099D01*
X144809636Y-55778818D01*
X144786737Y-55735976D01*
X144786735Y-55735973D01*
X144667957Y-55591242D01*
X144523226Y-55472464D01*
X144523223Y-55472462D01*
X144358102Y-55384204D01*
X144178933Y-55329853D01*
X144178931Y-55329852D01*
X143992600Y-55311501D01*
X143806268Y-55329852D01*
X143806266Y-55329853D01*
X143627097Y-55384204D01*
X143461976Y-55472462D01*
X143461973Y-55472464D01*
X143317242Y-55591242D01*
X143198464Y-55735973D01*
X143198462Y-55735976D01*
X143110204Y-55901097D01*
X143055853Y-56080266D01*
X143055852Y-56080268D01*
X143037501Y-56266600D01*
X143055852Y-56452927D01*
X143110024Y-56631506D01*
X143110647Y-56701373D01*
X143079044Y-56755183D01*
X142709986Y-57124241D01*
X142697035Y-57135512D01*
X142690767Y-57140244D01*
X142659522Y-57174518D01*
X142655574Y-57178653D01*
X142642827Y-57191400D01*
X142639746Y-57195111D01*
X142633085Y-57203519D01*
X142615083Y-57223266D01*
X142615083Y-57223267D01*
X142612578Y-57229733D01*
X142599259Y-57255002D01*
X142595345Y-57260715D01*
X142595343Y-57260720D01*
X142589228Y-57286717D01*
X142584151Y-57303113D01*
X142574500Y-57328026D01*
X142574500Y-57334951D01*
X142571206Y-57363341D01*
X142569621Y-57370077D01*
X142569621Y-57370082D01*
X142573311Y-57396533D01*
X142574500Y-57413664D01*
X142574500Y-60027545D01*
X142554815Y-60094584D01*
X142502011Y-60140339D01*
X142500936Y-60140824D01*
X142422270Y-60175848D01*
X142422265Y-60175851D01*
X142269129Y-60287111D01*
X142142466Y-60427785D01*
X142047821Y-60591715D01*
X142047818Y-60591722D01*
X142007519Y-60715751D01*
X141989326Y-60771744D01*
X141969540Y-60960000D01*
X141989326Y-61148256D01*
X141989327Y-61148259D01*
X142047818Y-61328277D01*
X142047821Y-61328284D01*
X142142467Y-61492216D01*
X142225852Y-61584824D01*
X142269129Y-61632888D01*
X142422265Y-61744148D01*
X142422270Y-61744151D01*
X142595192Y-61821142D01*
X142595197Y-61821144D01*
X142780354Y-61860500D01*
X142780355Y-61860500D01*
X142969644Y-61860500D01*
X142969646Y-61860500D01*
X143154803Y-61821144D01*
X143327730Y-61744151D01*
X143480871Y-61632888D01*
X143607533Y-61492216D01*
X143613112Y-61482553D01*
X143663678Y-61434337D01*
X143732284Y-61421112D01*
X143797150Y-61447079D01*
X143837679Y-61503992D01*
X143844500Y-61544551D01*
X143844500Y-61865366D01*
X143824815Y-61932405D01*
X143808181Y-61953047D01*
X141176686Y-64584541D01*
X141163735Y-64595812D01*
X141157467Y-64600544D01*
X141126222Y-64634818D01*
X141122274Y-64638953D01*
X141109527Y-64651700D01*
X141106446Y-64655411D01*
X141099785Y-64663819D01*
X141081783Y-64683566D01*
X141081783Y-64683567D01*
X141079278Y-64690033D01*
X141065959Y-64715302D01*
X141062045Y-64721015D01*
X141062043Y-64721020D01*
X141055928Y-64747017D01*
X141050851Y-64763413D01*
X141041200Y-64788326D01*
X141041200Y-64795251D01*
X141037906Y-64823641D01*
X141036321Y-64830377D01*
X141036321Y-64830382D01*
X141040011Y-64856833D01*
X141041200Y-64873964D01*
X141041200Y-65196641D01*
X141021515Y-65263680D01*
X140968711Y-65309435D01*
X140899553Y-65319379D01*
X140844316Y-65296960D01*
X140787733Y-65255850D01*
X140787729Y-65255848D01*
X140614807Y-65178857D01*
X140614802Y-65178855D01*
X140469001Y-65147865D01*
X140429646Y-65139500D01*
X140240354Y-65139500D01*
X140207897Y-65146398D01*
X140055197Y-65178855D01*
X140055192Y-65178857D01*
X139882270Y-65255848D01*
X139882265Y-65255851D01*
X139729129Y-65367111D01*
X139602467Y-65507783D01*
X139596887Y-65517449D01*
X139546319Y-65565664D01*
X139477712Y-65578886D01*
X139412848Y-65552918D01*
X139372320Y-65496004D01*
X139365500Y-65455448D01*
X139365500Y-61544551D01*
X139385185Y-61477512D01*
X139437989Y-61431757D01*
X139507147Y-61421813D01*
X139570703Y-61450838D01*
X139596888Y-61482553D01*
X139602465Y-61492214D01*
X139729129Y-61632888D01*
X139882265Y-61744148D01*
X139882270Y-61744151D01*
X140055192Y-61821142D01*
X140055197Y-61821144D01*
X140240354Y-61860500D01*
X140240355Y-61860500D01*
X140429644Y-61860500D01*
X140429646Y-61860500D01*
X140614803Y-61821144D01*
X140787730Y-61744151D01*
X140940871Y-61632888D01*
X141067533Y-61492216D01*
X141162179Y-61328284D01*
X141220674Y-61148256D01*
X141240460Y-60960000D01*
X141220674Y-60771744D01*
X141162179Y-60591716D01*
X141067533Y-60427784D01*
X140940871Y-60287112D01*
X140940870Y-60287111D01*
X140787734Y-60175851D01*
X140787729Y-60175848D01*
X140614807Y-60098857D01*
X140614802Y-60098855D01*
X140469001Y-60067865D01*
X140429646Y-60059500D01*
X140410999Y-60059500D01*
X140343960Y-60039815D01*
X140298205Y-59987011D01*
X140288261Y-59917853D01*
X140298158Y-59890606D01*
X140295963Y-59889756D01*
X140302615Y-59872581D01*
X140315949Y-59847282D01*
X140319856Y-59841581D01*
X140325970Y-59815581D01*
X140331046Y-59799189D01*
X140340700Y-59774273D01*
X140340700Y-59767348D01*
X140343995Y-59738955D01*
X140345578Y-59732223D01*
X140345579Y-59732219D01*
X140341889Y-59705765D01*
X140340700Y-59688635D01*
X140340700Y-54845136D01*
X140341889Y-54828005D01*
X140342971Y-54820239D01*
X140342973Y-54820235D01*
X140340832Y-54773920D01*
X140340700Y-54768195D01*
X140340700Y-54750159D01*
X140340246Y-54745266D01*
X140339017Y-54734680D01*
X140337785Y-54708008D01*
X140334988Y-54701675D01*
X140326532Y-54674368D01*
X140325261Y-54667567D01*
X140311199Y-54644856D01*
X140303198Y-54629678D01*
X140292406Y-54605235D01*
X140287509Y-54600338D01*
X140269763Y-54577934D01*
X140266118Y-54572047D01*
X140266117Y-54572046D01*
X140244802Y-54555950D01*
X140231848Y-54544677D01*
X139902355Y-54215184D01*
X139868870Y-54153861D01*
X139871376Y-54091507D01*
X139872852Y-54086641D01*
X139925547Y-53912931D01*
X139943899Y-53726600D01*
X143037501Y-53726600D01*
X143055852Y-53912931D01*
X143055853Y-53912933D01*
X143110204Y-54092102D01*
X143198462Y-54257223D01*
X143198464Y-54257226D01*
X143317242Y-54401957D01*
X143461973Y-54520735D01*
X143461976Y-54520737D01*
X143620066Y-54605237D01*
X143627099Y-54608996D01*
X143806266Y-54663346D01*
X143806268Y-54663347D01*
X143822974Y-54664992D01*
X143992600Y-54681699D01*
X144178931Y-54663347D01*
X144358101Y-54608996D01*
X144523225Y-54520736D01*
X144667957Y-54401957D01*
X144786736Y-54257225D01*
X144874996Y-54092101D01*
X144929347Y-53912931D01*
X144947699Y-53726600D01*
X144929347Y-53540269D01*
X144874996Y-53361099D01*
X144809636Y-53238818D01*
X144786737Y-53195976D01*
X144786735Y-53195973D01*
X144667957Y-53051242D01*
X144523226Y-52932464D01*
X144523223Y-52932462D01*
X144358102Y-52844204D01*
X144178933Y-52789853D01*
X144178931Y-52789852D01*
X143992600Y-52771501D01*
X143806268Y-52789852D01*
X143806266Y-52789853D01*
X143627097Y-52844204D01*
X143461976Y-52932462D01*
X143461973Y-52932464D01*
X143317242Y-53051242D01*
X143198464Y-53195973D01*
X143198462Y-53195976D01*
X143110204Y-53361097D01*
X143055853Y-53540266D01*
X143055852Y-53540268D01*
X143037501Y-53726600D01*
X139943899Y-53726600D01*
X139925547Y-53540269D01*
X139871196Y-53361099D01*
X139805836Y-53238818D01*
X139782937Y-53195976D01*
X139782935Y-53195973D01*
X139664157Y-53051242D01*
X139519426Y-52932464D01*
X139519423Y-52932462D01*
X139354302Y-52844204D01*
X139175133Y-52789853D01*
X139175131Y-52789852D01*
X138988800Y-52771501D01*
X138988799Y-52771501D01*
X138932546Y-52777041D01*
X138863900Y-52764022D01*
X138813190Y-52715956D01*
X138796516Y-52648105D01*
X138819173Y-52582011D01*
X138832706Y-52565963D01*
X140511170Y-50887500D01*
X152702843Y-50887500D01*
X152721426Y-51076181D01*
X152721427Y-51076183D01*
X152776463Y-51257615D01*
X152776464Y-51257618D01*
X152776465Y-51257619D01*
X152776466Y-51257622D01*
X152865834Y-51424818D01*
X152865838Y-51424825D01*
X152986116Y-51571383D01*
X153132674Y-51691661D01*
X153132681Y-51691665D01*
X153299877Y-51781033D01*
X153299878Y-51781033D01*
X153299885Y-51781037D01*
X153481317Y-51836073D01*
X153481316Y-51836073D01*
X153498233Y-51837739D01*
X153670000Y-51854657D01*
X153858683Y-51836073D01*
X154040115Y-51781037D01*
X154207324Y-51691662D01*
X154353883Y-51571383D01*
X154474162Y-51424824D01*
X154563537Y-51257615D01*
X154618573Y-51076183D01*
X154637157Y-50887500D01*
X154618573Y-50698817D01*
X154563537Y-50517385D01*
X154474162Y-50350176D01*
X154474161Y-50350174D01*
X154353883Y-50203616D01*
X154207325Y-50083338D01*
X154207318Y-50083334D01*
X154040122Y-49993966D01*
X154040119Y-49993965D01*
X154040118Y-49993964D01*
X154040115Y-49993963D01*
X153858683Y-49938927D01*
X153858681Y-49938926D01*
X153858683Y-49938926D01*
X153670000Y-49920343D01*
X153481318Y-49938926D01*
X153374194Y-49971421D01*
X153299885Y-49993963D01*
X153299882Y-49993964D01*
X153299880Y-49993965D01*
X153299877Y-49993966D01*
X153132681Y-50083334D01*
X153132674Y-50083338D01*
X152986116Y-50203616D01*
X152865838Y-50350174D01*
X152865834Y-50350181D01*
X152776466Y-50517377D01*
X152776465Y-50517380D01*
X152721426Y-50698818D01*
X152702843Y-50887500D01*
X140511170Y-50887500D01*
X142157955Y-49240715D01*
X142219276Y-49207232D01*
X142288968Y-49212216D01*
X142344901Y-49254088D01*
X142354990Y-49269942D01*
X142427315Y-49405250D01*
X142427317Y-49405252D01*
X142558589Y-49565210D01*
X142655209Y-49644502D01*
X142718550Y-49696485D01*
X142901046Y-49794032D01*
X143099066Y-49854100D01*
X143099065Y-49854100D01*
X143117529Y-49855918D01*
X143305000Y-49874383D01*
X143510934Y-49854100D01*
X143708954Y-49794032D01*
X143891450Y-49696485D01*
X144051410Y-49565210D01*
X144182685Y-49405250D01*
X144280232Y-49222754D01*
X144340300Y-49024734D01*
X144360583Y-48818800D01*
X146899417Y-48818800D01*
X146919699Y-49024732D01*
X146919700Y-49024734D01*
X146979768Y-49222754D01*
X147077315Y-49405250D01*
X147077317Y-49405252D01*
X147208589Y-49565210D01*
X147305209Y-49644502D01*
X147368550Y-49696485D01*
X147551046Y-49794032D01*
X147749066Y-49854100D01*
X147749065Y-49854100D01*
X147767529Y-49855918D01*
X147955000Y-49874383D01*
X148160934Y-49854100D01*
X148358954Y-49794032D01*
X148541450Y-49696485D01*
X148701410Y-49565210D01*
X148832685Y-49405250D01*
X148930232Y-49222754D01*
X148990300Y-49024734D01*
X149010583Y-48818800D01*
X148990300Y-48612866D01*
X148930232Y-48414846D01*
X148894234Y-48347500D01*
X152702843Y-48347500D01*
X152721426Y-48536181D01*
X152721427Y-48536183D01*
X152776463Y-48717615D01*
X152776464Y-48717618D01*
X152776465Y-48717619D01*
X152776466Y-48717622D01*
X152865834Y-48884818D01*
X152865838Y-48884825D01*
X152986116Y-49031383D01*
X153132674Y-49151661D01*
X153132681Y-49151665D01*
X153299877Y-49241033D01*
X153299878Y-49241033D01*
X153299885Y-49241037D01*
X153481317Y-49296073D01*
X153481316Y-49296073D01*
X153498233Y-49297739D01*
X153670000Y-49314657D01*
X153858683Y-49296073D01*
X154040115Y-49241037D01*
X154207324Y-49151662D01*
X154353883Y-49031383D01*
X154474162Y-48884824D01*
X154563537Y-48717615D01*
X154618573Y-48536183D01*
X154637157Y-48347500D01*
X154618573Y-48158817D01*
X154563537Y-47977385D01*
X154563533Y-47977377D01*
X154474165Y-47810181D01*
X154474161Y-47810174D01*
X154353883Y-47663616D01*
X154207325Y-47543338D01*
X154207318Y-47543334D01*
X154040122Y-47453966D01*
X154040119Y-47453965D01*
X154040118Y-47453964D01*
X154040115Y-47453963D01*
X153858683Y-47398927D01*
X153858681Y-47398926D01*
X153858683Y-47398926D01*
X153670000Y-47380343D01*
X153481318Y-47398926D01*
X153374194Y-47431421D01*
X153299885Y-47453963D01*
X153299882Y-47453964D01*
X153299880Y-47453965D01*
X153299877Y-47453966D01*
X153132681Y-47543334D01*
X153132674Y-47543338D01*
X152986116Y-47663616D01*
X152865838Y-47810174D01*
X152865834Y-47810181D01*
X152776466Y-47977377D01*
X152776465Y-47977380D01*
X152721426Y-48158818D01*
X152702843Y-48347500D01*
X148894234Y-48347500D01*
X148832685Y-48232350D01*
X148772338Y-48158817D01*
X148701410Y-48072389D01*
X148541452Y-47941117D01*
X148541453Y-47941117D01*
X148541450Y-47941115D01*
X148358954Y-47843568D01*
X148160934Y-47783500D01*
X148160932Y-47783499D01*
X148160934Y-47783499D01*
X147955000Y-47763217D01*
X147749067Y-47783499D01*
X147551043Y-47843569D01*
X147440898Y-47902443D01*
X147368550Y-47941115D01*
X147368548Y-47941116D01*
X147368547Y-47941117D01*
X147208589Y-48072389D01*
X147077317Y-48232347D01*
X146979769Y-48414843D01*
X146919699Y-48612867D01*
X146899417Y-48818800D01*
X144360583Y-48818800D01*
X144340300Y-48612866D01*
X144280232Y-48414846D01*
X144182685Y-48232350D01*
X144122338Y-48158817D01*
X144051410Y-48072389D01*
X143891452Y-47941117D01*
X143891453Y-47941117D01*
X143891450Y-47941115D01*
X143708954Y-47843568D01*
X143510934Y-47783500D01*
X143510932Y-47783499D01*
X143510934Y-47783499D01*
X143305000Y-47763217D01*
X143099067Y-47783499D01*
X142901043Y-47843569D01*
X142790898Y-47902443D01*
X142718550Y-47941115D01*
X142718548Y-47941116D01*
X142718547Y-47941117D01*
X142558589Y-48072389D01*
X142427317Y-48232347D01*
X142329769Y-48414843D01*
X142329768Y-48414846D01*
X142325715Y-48428207D01*
X142287416Y-48486645D01*
X142223604Y-48515101D01*
X142208592Y-48515066D01*
X142208612Y-48515497D01*
X142197137Y-48516027D01*
X142197136Y-48516027D01*
X142153110Y-48518062D01*
X142150821Y-48518168D01*
X142145096Y-48518300D01*
X142127056Y-48518300D01*
X142127051Y-48518300D01*
X142122232Y-48518747D01*
X142111596Y-48519981D01*
X142084907Y-48521215D01*
X142084906Y-48521215D01*
X142078565Y-48524015D01*
X142051279Y-48532464D01*
X142044472Y-48533736D01*
X142044466Y-48533739D01*
X142021754Y-48547800D01*
X142006574Y-48555801D01*
X141982137Y-48566592D01*
X141977236Y-48571493D01*
X141954842Y-48589231D01*
X141948948Y-48592880D01*
X141932849Y-48614198D01*
X141921579Y-48627148D01*
X136580986Y-53967741D01*
X136568035Y-53979012D01*
X136561767Y-53983744D01*
X136530522Y-54018018D01*
X136526574Y-54022153D01*
X136513827Y-54034900D01*
X136510746Y-54038611D01*
X136504085Y-54047019D01*
X136486083Y-54066766D01*
X136486083Y-54066767D01*
X136483578Y-54073233D01*
X136470259Y-54098502D01*
X136466345Y-54104215D01*
X136466343Y-54104220D01*
X136460228Y-54130217D01*
X136455151Y-54146613D01*
X136445500Y-54171526D01*
X136445500Y-54178451D01*
X136442206Y-54206841D01*
X136440621Y-54213577D01*
X136440621Y-54213582D01*
X134878664Y-54213582D01*
X134943596Y-54092101D01*
X134997947Y-53912931D01*
X135016299Y-53726600D01*
X134997947Y-53540269D01*
X134943596Y-53361099D01*
X134878236Y-53238818D01*
X134855337Y-53195976D01*
X134855335Y-53195973D01*
X134736557Y-53051242D01*
X134591826Y-52932464D01*
X134591823Y-52932462D01*
X134426702Y-52844204D01*
X134247533Y-52789853D01*
X134247531Y-52789852D01*
X134061200Y-52771501D01*
X133874868Y-52789852D01*
X133874866Y-52789853D01*
X133695697Y-52844204D01*
X133530576Y-52932462D01*
X133530573Y-52932464D01*
X133385842Y-53051242D01*
X133267064Y-53195973D01*
X133267062Y-53195976D01*
X133178804Y-53361097D01*
X133124453Y-53540266D01*
X133124452Y-53540268D01*
X133106101Y-53726600D01*
X129185079Y-53726600D01*
X129218573Y-53616183D01*
X129237157Y-53427500D01*
X129218573Y-53238817D01*
X129163537Y-53057385D01*
X129160254Y-53051242D01*
X129074165Y-52890181D01*
X129074161Y-52890174D01*
X128953883Y-52743616D01*
X128807325Y-52623338D01*
X128807318Y-52623334D01*
X128640122Y-52533966D01*
X128640119Y-52533965D01*
X128640118Y-52533964D01*
X128640115Y-52533963D01*
X128458683Y-52478927D01*
X128458681Y-52478926D01*
X128458683Y-52478926D01*
X128270000Y-52460343D01*
X128081318Y-52478926D01*
X127974194Y-52511421D01*
X127899885Y-52533963D01*
X127899882Y-52533964D01*
X127899880Y-52533965D01*
X127899877Y-52533966D01*
X127732681Y-52623334D01*
X127732674Y-52623338D01*
X127703164Y-52647557D01*
X127638853Y-52674869D01*
X127569986Y-52663077D01*
X127518426Y-52615925D01*
X127500500Y-52551703D01*
X127500500Y-51763296D01*
X127520185Y-51696257D01*
X127572989Y-51650502D01*
X127642147Y-51640558D01*
X127703165Y-51667443D01*
X127732674Y-51691661D01*
X127732681Y-51691665D01*
X127899877Y-51781033D01*
X127899878Y-51781033D01*
X127899885Y-51781037D01*
X128081317Y-51836073D01*
X128081316Y-51836073D01*
X128098233Y-51837739D01*
X128270000Y-51854657D01*
X128458683Y-51836073D01*
X128640115Y-51781037D01*
X128807324Y-51691662D01*
X128953883Y-51571383D01*
X129074162Y-51424824D01*
X129163537Y-51257615D01*
X129218573Y-51076183D01*
X129237157Y-50887500D01*
X129218573Y-50698817D01*
X129163537Y-50517385D01*
X129074162Y-50350176D01*
X129074161Y-50350174D01*
X128953883Y-50203616D01*
X128807325Y-50083338D01*
X128807318Y-50083334D01*
X128640122Y-49993966D01*
X128640119Y-49993965D01*
X128640118Y-49993964D01*
X128640115Y-49993963D01*
X128458683Y-49938927D01*
X128458681Y-49938926D01*
X128458683Y-49938926D01*
X128270000Y-49920343D01*
X128081318Y-49938926D01*
X127974194Y-49971421D01*
X127899885Y-49993963D01*
X127899882Y-49993964D01*
X127899880Y-49993965D01*
X127899877Y-49993966D01*
X127732681Y-50083334D01*
X127732674Y-50083338D01*
X127703164Y-50107557D01*
X127638853Y-50134869D01*
X127569986Y-50123077D01*
X127518426Y-50075925D01*
X127500500Y-50011703D01*
X127500500Y-49223296D01*
X127520185Y-49156257D01*
X127572989Y-49110502D01*
X127642147Y-49100558D01*
X127703165Y-49127443D01*
X127732674Y-49151661D01*
X127732681Y-49151665D01*
X127899877Y-49241033D01*
X127899878Y-49241033D01*
X127899885Y-49241037D01*
X128081317Y-49296073D01*
X128081316Y-49296073D01*
X128098233Y-49297739D01*
X128270000Y-49314657D01*
X128458683Y-49296073D01*
X128640115Y-49241037D01*
X128807324Y-49151662D01*
X128953883Y-49031383D01*
X129074162Y-48884824D01*
X129109453Y-48818800D01*
X132949417Y-48818800D01*
X132969699Y-49024732D01*
X132969700Y-49024734D01*
X133029768Y-49222754D01*
X133127315Y-49405250D01*
X133127317Y-49405252D01*
X133258589Y-49565210D01*
X133355209Y-49644502D01*
X133418550Y-49696485D01*
X133601046Y-49794032D01*
X133799066Y-49854100D01*
X133799065Y-49854100D01*
X133817529Y-49855918D01*
X134005000Y-49874383D01*
X134210934Y-49854100D01*
X134408954Y-49794032D01*
X134591450Y-49696485D01*
X134751410Y-49565210D01*
X134882685Y-49405250D01*
X134980232Y-49222754D01*
X135040300Y-49024734D01*
X135060583Y-48818800D01*
X137599417Y-48818800D01*
X137619699Y-49024732D01*
X137619700Y-49024734D01*
X137679768Y-49222754D01*
X137777315Y-49405250D01*
X137777317Y-49405252D01*
X137908589Y-49565210D01*
X138005209Y-49644502D01*
X138068550Y-49696485D01*
X138251046Y-49794032D01*
X138449066Y-49854100D01*
X138449065Y-49854100D01*
X138467529Y-49855918D01*
X138655000Y-49874383D01*
X138860934Y-49854100D01*
X139058954Y-49794032D01*
X139241450Y-49696485D01*
X139401410Y-49565210D01*
X139532685Y-49405250D01*
X139630232Y-49222754D01*
X139690300Y-49024734D01*
X139710583Y-48818800D01*
X139690300Y-48612866D01*
X139630232Y-48414846D01*
X139532685Y-48232350D01*
X139472338Y-48158817D01*
X139401410Y-48072389D01*
X139241452Y-47941117D01*
X139241453Y-47941117D01*
X139241450Y-47941115D01*
X139058954Y-47843568D01*
X138860934Y-47783500D01*
X138860932Y-47783499D01*
X138860934Y-47783499D01*
X138655000Y-47763217D01*
X138449067Y-47783499D01*
X138251043Y-47843569D01*
X138140898Y-47902443D01*
X138068550Y-47941115D01*
X138068548Y-47941116D01*
X138068547Y-47941117D01*
X137908589Y-48072389D01*
X137777317Y-48232347D01*
X137679769Y-48414843D01*
X137619699Y-48612867D01*
X137599417Y-48818800D01*
X135060583Y-48818800D01*
X135040300Y-48612866D01*
X134980232Y-48414846D01*
X134882685Y-48232350D01*
X134822338Y-48158817D01*
X134751410Y-48072389D01*
X134591452Y-47941117D01*
X134591453Y-47941117D01*
X134591450Y-47941115D01*
X134408954Y-47843568D01*
X134210934Y-47783500D01*
X134210932Y-47783499D01*
X134210934Y-47783499D01*
X134005000Y-47763217D01*
X133799067Y-47783499D01*
X133601043Y-47843569D01*
X133490898Y-47902443D01*
X133418550Y-47941115D01*
X133418548Y-47941116D01*
X133418547Y-47941117D01*
X133258589Y-48072389D01*
X133127317Y-48232347D01*
X133029769Y-48414843D01*
X132969699Y-48612867D01*
X132949417Y-48818800D01*
X129109453Y-48818800D01*
X129163537Y-48717615D01*
X129218573Y-48536183D01*
X129237157Y-48347500D01*
X129218573Y-48158817D01*
X129163537Y-47977385D01*
X129163533Y-47977377D01*
X129074165Y-47810181D01*
X129074161Y-47810174D01*
X128953883Y-47663616D01*
X128807325Y-47543338D01*
X128807318Y-47543334D01*
X128640122Y-47453966D01*
X128640119Y-47453965D01*
X128640118Y-47453964D01*
X128640115Y-47453963D01*
X128458683Y-47398927D01*
X128458681Y-47398926D01*
X128458683Y-47398926D01*
X128270000Y-47380343D01*
X128081318Y-47398926D01*
X127974194Y-47431421D01*
X127899885Y-47453963D01*
X127899882Y-47453964D01*
X127899880Y-47453965D01*
X127899877Y-47453966D01*
X127732681Y-47543334D01*
X127732674Y-47543338D01*
X127703164Y-47567557D01*
X127638853Y-47594869D01*
X127569986Y-47583077D01*
X127518426Y-47535925D01*
X127500500Y-47471703D01*
X127500500Y-45074500D01*
X127520185Y-45007461D01*
X127572989Y-44961706D01*
X127624500Y-44950500D01*
X154904201Y-44950500D01*
X154950500Y-44950500D01*
X155017539Y-44970185D01*
G37*
%TD.AperFunction*%
%TD*%
M02*
